<?xml version="1.0" encoding="UTF-8"?>
<svg id="Layer_1" xmlns="http://www.w3.org/2000/svg" viewBox="0 0 153.07 153.07">
  <path d="M153.07,123.12c0,16.54-12.98,29.95-28.98,29.95H0V0h124.09c16,0,28.98,13.41,28.98,29.95v93.17Z" style="fill: #fff;"/>
  <g>
    <path d="M112.94,19.66c0-1.42,1.11-2.57,2.48-2.57s2.49,1.15,2.49,2.57v2.27c0,1.42-1.11,2.57-2.49,2.57s-2.48-1.15-2.48-2.57v-2.27Z" style="fill: #170c59;"/>
    <path d="M129.98,26.93c-.43-1.36-1.83-2.09-3.13-1.64l-11.42,3.85-11.42-3.85c-1.3-.45-2.7.29-3.13,1.64-.43,1.35.28,2.8,1.59,3.23l8.94,3.02-5.5,7.82c-.81,1.15-.55,2.75.55,3.58,1.11.83,2.67.57,3.47-.56l5.51-7.84,5.51,7.84c.81,1.14,2.37,1.39,3.47.56,1.12-.84,1.36-2.43.55-3.58l-5.49-7.83,8.9-3.01c1.3-.43,2.02-1.88,1.6-3.23" style="fill: #170c59;"/>
    <path d="M88.53,25.72c0-1.08.84-1.96,1.89-1.96s1.9.88,1.9,1.96v1.73c0,1.08-.84,1.96-1.9,1.96s-1.89-.87-1.89-1.96v-1.73Z" style="fill: #170c59;"/>
    <path d="M101.5,31.26c-.32-1.03-1.39-1.59-2.38-1.26l-8.7,2.93-8.7-2.93c-.99-.34-2.06.22-2.38,1.26-.33,1.02.21,2.13,1.21,2.46l6.81,2.29-4.19,5.95c-.61.88-.42,2.1.42,2.73.85.64,2.03.44,2.65-.43l4.19-5.96,4.2,5.96c.62.87,1.8,1.07,2.65.43.85-.64,1.03-1.85.42-2.73l-4.19-5.96,6.79-2.29c1-.33,1.54-1.44,1.21-2.46" style="fill: #170c59;"/>
    <path d="M70.34,30.64c0-.81.63-1.46,1.41-1.46s1.41.66,1.41,1.46v1.29c0,.81-.63,1.46-1.41,1.46s-1.41-.65-1.41-1.46v-1.29Z" style="fill: #170c59;"/>
    <path d="M80.02,34.76c-.24-.77-1.04-1.19-1.78-.94l-6.49,2.19-6.49-2.19c-.74-.25-1.53.17-1.78.94-.25.76.16,1.59.9,1.84l5.08,1.71-3.12,4.45c-.46.65-.32,1.56.31,2.03.64.47,1.52.33,1.97-.32l3.14-4.45,3.13,4.45c.46.65,1.34.8,1.98.32.63-.47.77-1.39.31-2.03l-3.12-4.45,5.06-1.71c.74-.25,1.15-1.07.9-1.84" style="fill: #170c59;"/>
    <path d="M32.17,76.81c-8.6,0-13.23-5.84-13.23-16.6s4.81-16.61,13.32-16.61,13.18,5.99,13.18,16.65-4.67,16.56-13.27,16.56M32.3,47.46c-5.42,0-8.22,4.29-8.22,12.75,0,4.15.79,7.96,2.15,9.94,1.21,1.83,3.41,2.85,6.03,2.85,5.42,0,8.04-4.1,8.04-12.75s-2.57-12.79-7.99-12.79" style="fill: #170c59;"/>
    <path d="M62.45,45.1c-.42-.1-1.92-.29-3.83-.29-2.39,0-3,.97-3,4.2v4.39h6.17v3.23h-6.17v19.6h-4.53v-19.6h-3.88v-2.76l3.88-.53v-3.76c0-3.38.24-4.59,1.07-5.85,1.08-1.64,2.76-2.46,5.1-2.46s4.95.67,5.65.87l-.47,2.95Z" style="fill: #170c59;"/>
    <path d="M69.64,76.72c-2.25,0-4.2-.34-7.01-1.06l.75-3.19c2.24.53,3.93.72,5.47.72,3.08,0,4.67-1.15,4.67-3.28,0-1.78-.66-2.51-3.69-3.38-4.07-1.16-7.01-2.56-7.01-6.66,0-4.39,2.95-6.95,7.8-6.95,1.82,0,3.98.39,6.41,1.21l-.65,2.99c-1.55-.34-3.56-.73-5.19-.73-2.38,0-3.79,1.02-3.79,2.95,0,4.83,10.79,1.69,10.79,9.85,0,4.77-3.13,7.53-8.55,7.53" style="fill: #170c59;"/>
    <path d="M87.36,76.77c-2.15,0-3.73-.92-4.54-2.51-.51-1.02-.65-2.17-.65-5.27v-12.36h-3.74v-2.61l3.74-.48v-6.32h4.58v6.18h6.07v3.23h-6.07v11.01c0,3.86.05,3.96.37,4.53.33.58.98.87,1.96.87,1.07,0,2.1-.2,3.88-.68l.7,2.9c-2.66,1.06-4.48,1.5-6.31,1.5" style="fill: #170c59;"/>
    <path d="M98.71,65.42v.77c0,4.59,1.87,6.66,5.33,6.66,2.01,0,3.83-.39,7.43-1.59l.84,2.8c-4.58,2.07-6.82,2.71-9.49,2.71-5.43,0-8.98-4.16-8.98-11.2,0-7.68,3.65-12.7,9.77-12.7s8.93,3.72,8.93,11.49v1.06h-13.84ZM103.99,56.2c-2.99,0-4.77,2.22-5.14,6.47l9.35-.39c-.1-4.16-1.41-6.09-4.21-6.09" style="fill: #170c59;"/>
    <path d="M129.41,76.23v-2.08c-2.62,1.54-5.14,2.61-7.33,2.61-4.77,0-7.58-4.49-7.58-11.88s3.23-12.02,8.09-12.02c2.38,0,4.62,1.3,6.59,2.51v-13.42h4.58v34.28h-4.35ZM129.18,58.23c-2.8-1.02-3.69-1.25-5.05-1.25-3.09,0-4.77,2.61-4.77,7.72,0,5.5,1.55,8.01,4.58,8.01,1.26,0,2.52-.29,5.23-1.35v-13.13Z" style="fill: #170c59;"/>
    <g>
      <path d="M25.25,108.38c-3.97,0-6.28-2.81-6.28-7.85s2.46-7.88,6.67-7.88c1.23,0,2.81.23,4.93.82l-.43,1.96c-1.92-.41-3.13-.55-4.13-.55-2.72,0-4,1.83-4,5.62,0,1.94.34,3.47,1.03,4.41.59.84,1.41,1.23,2.67,1.23,1.05,0,1.99-.18,2.56-.37v-4.88h2.76v6.14c-2.53.98-4.18,1.35-5.78,1.35Z" style="fill: #170c59;"/>
      <path d="M38.21,108.32c-3.29,0-5.2-2.05-5.2-5.62s1.94-5.68,5.2-5.68,5.2,2.03,5.2,5.66-1.89,5.64-5.2,5.64ZM38.21,98.98c-1.58,0-2.31,1.16-2.31,3.65,0,2.67.71,3.74,2.33,3.74s2.28-1.07,2.28-3.68-.66-3.72-2.31-3.72Z" style="fill: #170c59;"/>
      <path d="M50.18,108.32c-3.29,0-5.2-2.05-5.2-5.62s1.94-5.68,5.2-5.68,5.2,2.03,5.2,5.66-1.89,5.64-5.2,5.64ZM50.18,98.98c-1.58,0-2.31,1.16-2.31,3.65,0,2.67.71,3.74,2.33,3.74s2.28-1.07,2.28-3.68-.66-3.72-2.31-3.72Z" style="fill: #170c59;"/>
      <path d="M64.2,108.11v-1c-1.19.71-2.4,1.25-3.56,1.25-2.33,0-3.7-2.12-3.7-5.62s1.51-5.73,3.95-5.73c1.16,0,2.21.66,3.13,1.21v-6.32h2.76v16.21h-2.58ZM64.01,99.78c-1.12-.39-1.51-.46-2.08-.46-1.39,0-2.1,1.1-2.1,3.36s.66,3.38,2.03,3.38c.53,0,1.05-.09,2.15-.48v-5.8Z" style="fill: #170c59;"/>
      <path d="M29.04,123.82c-.94.84-2.12,1.14-4.45,1.14h-2.03v5.98h-2.9v-15.23h5.02c2.24,0,3.15.16,3.99.71,1.12.71,1.74,2.01,1.74,3.77,0,1.58-.48,2.83-1.37,3.63ZM26.18,118.02c-.43-.16-1.07-.23-2.35-.23h-1.28v5.18h.87c1.62,0,2.35-.07,2.9-.34.82-.39,1.19-1.14,1.19-2.33,0-1.12-.5-1.99-1.32-2.28Z" style="fill: #170c59;"/>
      <path d="M37.73,122.29c-.96,0-1.71.11-2.67.52v8.13h-2.76v-10.84h2.58v1.1c1.19-.89,2.21-1.28,3.29-1.28.18,0,.41.02.41.02v2.4c-.37-.05-.57-.05-.84-.05Z" style="fill: #170c59;"/>
      <path d="M44.31,131.15c-3.29,0-5.2-2.05-5.2-5.62s1.94-5.68,5.2-5.68,5.2,2.03,5.2,5.66-1.89,5.64-5.2,5.64ZM44.31,121.81c-1.58,0-2.31,1.16-2.31,3.65,0,2.67.71,3.74,2.33,3.74s2.28-1.07,2.28-3.68-.66-3.72-2.31-3.72Z" style="fill: #170c59;"/>
      <path d="M56.91,130.94h-2.81l-3.93-10.84h2.99l2.53,8.54,2.65-8.54h2.47l-3.9,10.84Z" style="fill: #170c59;"/>
      <path d="M63.49,118.23c-.87,0-1.58-.71-1.58-1.58s.71-1.58,1.58-1.58,1.55.71,1.55,1.58-.68,1.58-1.55,1.58ZM62.09,130.94v-10.84h2.76v10.84h-2.76Z" style="fill: #170c59;"/>
      <path d="M74.29,130.94v-1c-1.19.71-2.4,1.25-3.56,1.25-2.33,0-3.7-2.12-3.7-5.62s1.51-5.73,3.95-5.73c1.16,0,2.21.66,3.13,1.21v-6.32h2.76v16.21h-2.58ZM74.1,122.61c-1.12-.39-1.51-.46-2.08-.46-1.39,0-2.1,1.1-2.1,3.36s.66,3.38,2.03,3.38c.52,0,1.05-.09,2.15-.48v-5.8Z" style="fill: #170c59;"/>
      <path d="M81.91,125.94v.32c0,1.96.82,2.79,2.4,2.79.94,0,1.87-.14,3.58-.68l.48,1.58c-2.24.96-3.49,1.25-4.79,1.25-2.72,0-4.54-1.96-4.54-5.39s1.78-5.96,4.91-5.96,4.61,1.78,4.61,5.64v.46h-6.64ZM84.15,121.65c-1.3,0-2.01.98-2.19,2.83l4.09-.21c-.07-1.78-.64-2.62-1.89-2.62Z" style="fill: #170c59;"/>
      <path d="M96.16,122.29c-.96,0-1.71.11-2.67.52v8.13h-2.76v-10.84h2.58v1.1c1.19-.89,2.21-1.28,3.29-1.28.18,0,.41.02.41.02v2.4c-.37-.05-.57-.05-.85-.05Z" style="fill: #170c59;"/>
    </g>
  </g>
</svg>