<svg xmlns="http://www.w3.org/2000/svg" viewBox="231 321 150 150"><g fill="#1672B8"><path d="M356.9 383.9c-.8 0-1.6 0-2.4.2-3-7.7-8.9-14.1-16.5-17.7 0-.4.2-1 .2-1.6 0-6.5-5.4-11.9-11.9-11.9-2.8 0-5.4 1-7.3 2.6v18.7c2 1.6 4.6 2.6 7.3 2.6 4 0 7.7-2 9.7-5.2 6.1 3 10.9 8.3 13.3 14.7-2.6 2.6-4.4 5.8-4.4 9.5s1.8 7.1 4.6 9.3c-2.4 6.5-7.1 11.9-13.5 15.1-2.1-3.2-5.7-5.2-9.7-5.2-2.8 0-5.4 1-7.3 2.6v18.7c2 1.6 4.6 2.6 7.3 2.6 6.5 0 11.9-5.4 11.9-11.9 0-.6 0-1-.2-1.6 7.5-3.6 13.5-9.9 16.5-17.9.8.2 1.6.2 2.4.2 6.5 0 11.9-5.4 11.9-11.9s-5.4-11.9-11.9-11.9zM243.4 349.8l-.2 92.4 69 12.5V337.3l-68.8 12.5zm38.9 69.4c-5.6 4.2-13.1 2.4-19 0 0-3.4-.2-6.9-.2-10.3 3.8 2.8 9.5 6.9 13.9 3.2 3.6-6-3.4-9.7-7.3-12.5-8.5-5.2-8.9-19.4-.6-24.8 5-3 10.7-2.2 16.1-1.4 0 3.2.2 6.5.2 9.7-4.6-1.4-10.1-4.2-13.9.2-2.6 6.7 5.6 9.1 9.5 12.7 7.8 4.8 8.4 17.5 1.3 23.2z"/></g></svg>