<?xml version="1.0" standalone="no"?>
<!DOCTYPE svg PUBLIC "-//W3C//DTD SVG 20010904//EN"
 "http://www.w3.org/TR/2001/REC-SVG-20010904/DTD/svg10.dtd">
<svg version="1.0" xmlns="http://www.w3.org/2000/svg"
 width="184.000000pt" height="184.000000pt" viewBox="0 0 184.000000 184.000000"
 preserveAspectRatio="xMidYMid meet">
<metadata>
Created by potrace 1.11, written by Peter Selinger 2001-2013
</metadata>
<g transform="translate(0.000000,184.000000) scale(0.100000,-0.100000)"
fill="#000000" stroke="none">
<path d="M1080 1703 c-131 -13 -331 -71 -486 -143 l-81 -38 -29 23 c-34 26
-198 127 -234 144 -22 10 -22 9 4 -11 16 -13 83 -63 150 -112 67 -50 155 -123
195 -163 41 -40 78 -73 81 -73 4 0 42 17 86 39 195 95 349 145 514 166 55 7
178 7 220 1 14 -3 33 -5 43 -5 9 -1 17 -4 17 -8 0 -5 -42 -9 -93 -9 -189 -3
-446 -88 -693 -231 l-62 -36 28 -61 c42 -94 45 -102 60 -171 12 -51 15 -162 6
-202 -6 -30 -40 -101 -67 -141 l-22 -34 59 7 c32 3 67 8 76 11 9 3 25 7 37 9
11 2 54 13 96 25 273 77 525 253 689 483 48 68 156 268 156 290 0 16 -88 85
-161 126 -63 35 -196 86 -249 95 -19 3 -46 8 -60 12 -29 6 -229 12 -280 7z"/>
<path d="M80 1664 c0 -3 -11 -49 -25 -102 -42 -162 -54 -264 -50 -427 4 -164
17 -237 63 -337 52 -113 126 -194 234 -257 l43 -25 -60 66 c-33 36 -80 100
-104 142 -40 71 -94 207 -104 266 -3 14 -10 54 -17 90 -19 102 -16 329 5 453
3 15 7 39 10 55 2 15 7 39 11 55 3 15 3 27 0 27 -3 0 -6 -3 -6 -6z"/>
<path d="M279 1358 c32 -62 73 -147 91 -188 18 -41 41 -95 52 -119 126 -281
222 -679 212 -877 -3 -51 0 -53 99 -52 l68 0 -7 36 c-47 277 -215 724 -384
1027 -29 52 -181 285 -186 285 -2 0 22 -51 55 -112z"/>
</g>
</svg>
