<svg id="Layer_1" xmlns="http://www.w3.org/2000/svg" viewBox="0 0 400 400"><style>.st0{fill:url(#XMLID_406_);} .st1{fill:none;} .st2{fill:#FFFFFF;} .st3{fill:#73BDEA;} .st4{fill:#3C3C3B;} .st5{fill:#8D5E19;} .st6{fill:#8EBF22;} .st7{fill:#95C11F;} .st8{fill:#209638;} .st9{fill:#42AB34;} .st10{fill:#2DA737;} .st11{fill:#30A836;} .st12{fill:#3EAB35;} .st13{fill:#46AC34;} .st14{fill:#49AD33;} .st15{fill:#44AC34;} .st16{fill:#40AB35;} .st17{fill:#8F5F19;} .st18{fill:#8C5D19;} .st19{fill:#CBE3F7;}</style><g id="XMLID_1_"><linearGradient id="XMLID_406_" gradientUnits="userSpaceOnUse" x1="205.619" y1="269.865" x2="205.619" y2="67.919"><stop offset="0" stop-color="#CBE3F7"/><stop offset=".18" stop-color="#C8E0F6"/><stop offset=".326" stop-color="#BDD9F2"/><stop offset=".46" stop-color="#A9CDEB"/><stop offset=".587" stop-color="#8EBDE1"/><stop offset=".709" stop-color="#67A9D4"/><stop offset=".827" stop-color="#2892C4"/><stop offset=".94" stop-color="#007AB2"/><stop offset="1" stop-color="#006EA8"/></linearGradient><path id="XMLID_404_" class="st0" d="M205.6 67.9c-55.8 0-101 45.2-101 101 0 23.8 10.3 47.5 26.9 66 .7.8 1.5 1.7 2.3 2.5 18.6 19.5 44.2 32.6 71.8 32.6 55.8 0 101-45.2 101-101 0-55.9-45.2-101.1-101-101.1z"/><g id="XMLID_893_"><path id="XMLID_403_" class="st1" d="M123.4 238.4c-5.1 5.6-5 11.9-5 12 .3 6.4 3.2 10.9 8.9 13.7 4 2 8.7 2.9 12.7 3.2 1.3.1 2.5.2 3.6.2h1.1c2.7 0 4.4-.2 4.5-.2h.2l24.9-.3h.1l5.7-.1c-17.3-5.3-33-15.5-45.5-28.6-.8-.8-1.5-1.6-2.3-2.5-.7-.8-1.5-1.6-2.2-2.5-2.7 1.5-4.9 3.2-6.7 5.1z"/><path id="XMLID_401_" class="st2" d="M174.3 267l-25 .3h-.2c-.1 0-1.9.2-4.5.2h-1.1c-1.1 0-2.3-.1-3.6-.2-4-.3-8.7-1.2-12.7-3.2-5.7-2.9-8.6-7.3-8.9-13.7 0-.1-.2-6.4 5-12 1.8-2 4.1-3.6 6.7-5-.9-1.1-1.8-2.1-2.6-3.2-13.9 7.6-13.2 20.4-13.2 20.4 1.1 24.7 35.3 20.8 35.3 20.8l35-.4c4.3-.2 8.6-.4 12.7-.5-5.9-.6-11.6-1.8-17.2-3.5h-5.7z"/><path id="XMLID_400_" class="st2" d="M232.5 266.7c-4.2-.2-8.4-.4-12.7-.4h-3.3-9.6-2.1c-2.1 0-4.2.1-6.4.1-.8 0-1.5 0-2.3.1h-.1c-2 .1-4 .1-6.1.2h-.1c-.8 0-1.5.1-2.3.1-1 0-2 .1-3 .2h-4.6c5.6 1.7 11.3 2.9 17.2 3.5 7.2-.2 14.1-.3 20.6-.2 5.9-.7 11.6-1.8 17.1-3.5-.6-.1-1.4-.1-2.3-.1z"/><path id="XMLID_399_" class="st3" d="M197.3 270.4c3 .3 6 .5 9.1.5 3.9 0 7.7-.2 11.5-.7-6.6 0-13.4 0-20.6.2z"/></g><g id="XMLID_856_"><path id="XMLID_891_" class="st4" d="M76.2 121.7c3.1 1.2 5.7.1 6.8-2.4 1.2-2.8.1-5.5-2.9-6.8-3.2-1.3-4.7 0-7 2.7-1.4 1.8-2.6 3.6-5.7 4.3-1.7.4-3.3.3-5-.4-4.9-2.1-6.8-6.7-4.8-11.3 1.8-4.3 5.9-6 10.8-4.3l-1.6 3.9c-2.3-.9-4.5.1-5.4 2.1-1 2.3.1 4.6 2.5 5.6.9.4 1.8.4 2.6.2 1.9-.6 2.9-2.6 4.7-4.6 3-3.1 6.6-4 10.3-2.4 5.5 2.3 7.8 7.3 5.5 12.5-2 4.8-6.9 6.7-12.3 4.5l1.5-3.6z"/><path id="XMLID_888_" class="st4" d="M99.6 110.5l-2.3 3.5-25.8-17.2 2.4-3.6 2.4 1.6c-.7-3.1-.1-6 1.5-8.4 3.9-5.9 11.3-7.3 17.1-3.4 2.7 1.8 4.6 4.5 5.3 7.6.8 3.3.2 6.3-1.8 9.2-1.8 2.6-4.2 4.3-7.4 4.9l8.6 5.8zm-4.9-12.6c2.4-3.6 1.5-8.6-2.3-11.2-4.1-2.7-9-1.6-11.4 2.1-2.3 3.4-1.3 8.6 2.4 11 3.9 2.7 9 1.6 11.3-1.9z"/><path id="XMLID_886_" class="st4" d="M106.7 87.8L89.5 72l2.7-2.9 2 1.8c-.6-2.4-.1-4.4 1.5-6.2l3.2 3c-2.5 3.1-1.9 5.4 1.1 8.2l9.6 8.8-2.9 3.1z"/><path id="XMLID_883_" class="st4" d="M97.2 60l-3.3-3.6 3.1-2.8 3.3 3.6-3.1 2.8zm1.9 2l3.1-2.8 15.9 17.2-3.1 2.8L99.1 62z"/><path id="XMLID_881_" class="st4" d="M120.9 73.4l-13.6-19.1 3.3-2.3 1.5 2.2c.2-2.8 1.4-4.7 3.6-6.3 4.9-3.5 9.9-2.5 13.8 3l7.7 10.9-3.4 2.4-7.2-10.2c-2.9-4-5.7-4.9-8.9-2.7-3.7 2.6-3.1 5.9.4 10.9l6.2 8.7-3.4 2.5z"/><path id="XMLID_878_" class="st4" d="M145.4 59.6c2.1 1.5 4.5 1.7 7 .6 4.3-1.9 6-5.9 4.1-10.3-.1-.1-.1-.2-.1-.3-1.1 3-3.1 5.1-5.8 6.3-6.5 2.9-13.4.1-16.2-6.3-1.3-3-1.5-6.3-.4-9.2 1.2-3.2 3.2-5.4 6.4-6.8 2.9-1.3 5.8-1.3 8.9-.1l-1.1-2.6 3.9-1.7 7.9 17.9c3.3 7.6 1 13.8-5.6 16.7-4.9 2.2-9.6 1.3-13-2.2l4-2zm3.8-7.5c3.8-1.7 5.7-6.6 3.9-10.6-1.9-4.3-6.8-6.1-10.6-4.5-4 1.8-5.9 6.4-4.1 10.6 1.9 4.6 6.7 6.3 10.8 4.5z"/><path id="XMLID_876_" class="st4" d="M172.7 47.8l-2.3.4L158 26.8l4.4-.8 7.6 14.3 1.8-16.1 2.5-.5 7.5 14.3 1.8-16.1 4.4-.9-3.6 24.5-2.3.4-7.7-14.7-1.7 16.6z"/><path id="XMLID_873_" class="st4" d="M196.3 24.2c2.4-2.5 5.5-3.8 8.7-3.7 3.4.1 6.3 1.4 8.6 3.9 2.2 2.4 3.4 5.5 3.3 8.7-.1 3.2-1.4 6.4-3.5 8.6-2.4 2.5-5.5 3.8-8.9 3.7-3.4-.1-6.3-1.4-8.5-3.9-2.2-2.4-3.3-5.6-3.2-8.8 0-3.3 1.2-6.2 3.5-8.5zm8.3 17c4.3.1 7.8-3.2 7.9-8 .2-4.8-3.1-8.3-7.5-8.4-4.2-.1-7.8 3.2-8 8-.1 4.7 3.2 8.3 7.6 8.4z"/><path id="XMLID_870_" class="st4" d="M225.1 26.2c2.9-1.9 6.2-2.6 9.3-1.9 3.3.8 5.9 2.6 7.6 5.5 1.7 2.8 2.3 6.1 1.6 9.1-.7 3.1-2.6 6-5.1 7.7-2.9 2-6.1 2.7-9.4 1.9-3.3-.8-5.9-2.6-7.6-5.5-1.6-2.8-2.1-6.2-1.4-9.2.6-3.3 2.4-5.8 5-7.6zm4.8 18.3c4.2 1 8.3-1.6 9.3-6.3 1.1-4.7-1.5-8.8-5.7-9.7-4.1-1-8.3 1.6-9.4 6.3-.9 4.5 1.5 8.7 5.8 9.7z"/><path id="XMLID_867_" class="st4" d="M261.2 56.7c-2.9 1.1-5.9 1-8.6-.2-6.4-3-8.9-10-5.9-16.4 1.4-3 3.7-5.2 6.7-6.4 3.2-1.3 6.2-1.1 9.4.4 2.9 1.3 4.9 3.5 5.9 6.6l4.4-9.4L277 33l-13.1 28.1-3.9-1.8 1.2-2.6zm-6.6-3.7c3.7 1.7 8.7 0 10.5-4 2-4.3.1-9.2-3.7-10.9-4-1.8-8.7-.2-10.7 3.9-2 4.4-.1 9.1 3.9 11z"/><path id="XMLID_864_" class="st4" d="M276.7 70l20.5-23.3 5.4 4.8c2.3 2 4 3.7 4.7 5.9 1 2.8.2 6.2-2 8.6-3.7 4.2-9.2 4.5-14.4 0l-2.7-2.4L280 73l-3.3-3zm16.7-7.3c3.3 2.9 5.9 3.3 8.3.6 2.4-2.7 1.8-5.3-1.4-8.2l-2.6-2.2-6.8 7.7 2.5 2.1z"/><path id="XMLID_861_" class="st4" d="M305.2 95.8c-3.1-.3-5.7-1.7-7.5-4-4.4-5.6-3.4-12.9 2.1-17.3 2.6-2 5.7-3 8.8-2.7 3.4.3 6 1.7 8.2 4.5 2 2.5 2.8 5.3 2.3 8.5l2.2-1.8 2.7 3.3-18.4 14.6-2.7-3.3 2.3-1.8zm-4.3-6.4c2.5 3.2 7.8 3.8 11.2 1.1 3.7-3 4.2-8.1 1.6-11.4-2.7-3.4-7.7-4.1-11.3-1.3-3.8 3.1-4.2 8.2-1.5 11.6z"/><path id="XMLID_859_" class="st4" d="M307.2 104.4l20.4-11.6 2 3.5-2.4 1.3c2.5.2 4.2 1.2 5.4 3.3l-3.8 2.2c-2.2-3.3-4.6-3.5-8.1-1.4l-11.3 6.4-2.2-3.7z"/><path id="XMLID_857_" class="st4" d="M341.7 102.8l1.6 3.9-17.1 7 13.2 3.6 1.9 4.6-13.5-3.7-7.5 14.1-2.1-5 7.4-13.2-11 4.5-1.6-3.9 28.7-11.9z"/></g><g id="XMLID_812_"><path id="XMLID_853_" class="st4" d="M66.3 299.7l16.6-16 3.6 3.7c1.5 1.6 2.6 2.9 3 4.5.5 2.1-.3 4.5-2.1 6.2-3 2.9-7.1 2.8-10.5-.7l-1.8-1.9-6.7 6.4-2.1-2.2zm12.8-4.6c2.2 2.3 4 2.7 6 .8 1.9-1.8 1.7-3.8-.4-6l-1.7-1.8-5.5 5.3 1.6 1.7z"/><path id="XMLID_851_" class="st4" d="M77.8 311.3l11.7-12.9 2.1 1.9-1.4 1.5c1.8-.5 3.2-.2 4.5 1l-2.2 2.4c-2.3-1.7-3.9-1.3-6 1l-6.5 7.2-2.2-2.1z"/><path id="XMLID_848_" class="st4" d="M93.2 320.8c1.6 1.2 3.6 1.4 5.5.6l2.7 2.1c-3.6 2.1-7.2 2-10.1-.2-2-1.5-3.1-3.5-3.3-5.9-.2-2.3.5-4.8 1.9-6.7 1.5-2 3.5-3.2 5.8-3.6 2.5-.5 4.8.1 6.7 1.5 2.3 1.8 3.6 4.6 3.3 7.6-.2 1.9-1 3.6-2.4 5.5-.1.1-.2.3-.3.4l-11.2-8.6c-1.4 2.7-.8 5.6 1.4 7.3zm7.4-9.7c-2.1-1.6-4.8-1.5-7.1.3l8.5 6.5c1.2-2.7.7-5.2-1.4-6.8z"/><path id="XMLID_846_" class="st4" d="M105.3 323.9l1.6-2.5 6.4 4.1-1.6 2.5-6.4-4.1z"/><path id="XMLID_844_" class="st4" d="M116.2 331.3c-1.1 2.2-.5 4.2 1.2 5.1 2 1.1 4 .4 5.1-1.7 1.2-2.3.4-3.5-1.4-5.3-1.2-1.2-2.4-2.1-2.7-4.5-.2-1.3.1-2.5.7-3.7 1.9-3.5 5.3-4.7 8.6-2.9 3 1.6 3.9 4.7 2.3 8.2l-2.6-1.4c.8-1.7.3-3.3-1.1-4.1-1.6-.9-3.3-.2-4.3 1.5-.3.6-.4 1.3-.3 1.9.3 1.4 1.7 2.3 3 3.7 2 2.4 2.4 5.1.9 7.8-2.1 3.9-5.8 5.3-9.4 3.4-3.3-1.8-4.3-5.5-2.3-9.3l2.3 1.3z"/><path id="XMLID_842_" class="st4" d="M132.8 347.3c-2.3-.9-3.8-2.5-4.7-4.9-.8-2.2-.7-4.8.2-6.9.9-2.3 2.5-3.9 4.6-4.9 2.3-1.1 4.7-1.2 7-.3 3.5 1.5 5.4 4.7 5.1 8.9l-3-1.2c-.2-2.4-1.3-4-3.4-4.9-2.7-1.1-6 .3-7.3 3.6-1.3 3.2-.1 6.6 2.8 7.8 2 .8 4.1.4 5.8-1.2l3.1 1.3c-3 3.3-6.5 4.2-10.2 2.7z"/><path id="XMLID_840_" class="st4" d="M145 351.5l6.4-22.2 2.9.8-2.1 7.3c1.3-1.2 3.1-1.5 5.1-.9 3.8 1.1 5.4 4.4 4.1 9.2l-2.8 9.6-2.9-.8 2.5-8.6c1.1-3.7.4-5.8-2.1-6.6-1.5-.4-3 0-4 1.1-.9 1-1.3 2.4-1.9 4.2l-2.2 7.6-3-.7z"/><path id="XMLID_837_" class="st4" d="M167.5 342c2-1.6 4.3-2.2 6.6-1.8 2.4.4 4.3 1.7 5.7 3.7 1.3 2 1.9 4.4 1.5 6.7-.4 2.4-1.7 4.6-3.4 6-2 1.6-4.3 2.3-6.7 1.8-2.4-.4-4.3-1.7-5.7-3.7-1.3-2-1.8-4.5-1.4-6.8.4-2.5 1.6-4.5 3.4-5.9zm4.1 13.3c3 .5 5.9-1.6 6.5-5.1.6-3.6-1.4-6.4-4.4-7-3-.5-5.9 1.6-6.5 5.1-.6 3.5 1.3 6.5 4.4 7z"/><path id="XMLID_834_" class="st4" d="M186.2 344.8c1.8-1.8 4-2.7 6.3-2.6 2.4.1 4.5 1.2 6.1 3 1.6 1.8 2.3 4.2 2.2 6.5-.1 2.4-1.1 4.7-2.7 6.3-1.8 1.8-4 2.7-6.5 2.6-2.4-.1-4.5-1.2-6-3.1-1.5-1.8-2.3-4.3-2.2-6.6.2-2.3 1.1-4.5 2.8-6.1zm5.6 12.8c3.1.2 5.6-2.3 5.8-5.8.2-3.6-2.1-6.2-5.2-6.4-3-.2-5.7 2.2-5.9 5.8-.1 3.5 2.2 6.2 5.3 6.4z"/><path id="XMLID_832_" class="st4" d="M203.4 337.4l3-.1.8 23.1-3 .1-.8-23.1z"/><path id="XMLID_828_" class="st4" d="M228.3 358.9c-3.6.6-7-2.1-7.6-5.7-.4-2.7.6-4.9 3.1-7.2-2-1.1-3-2.4-3.3-4.3-.5-3.1 1.4-5.8 4.5-6.4 2.8-.4 5.5 1.7 5.9 4.5.3 2.1-.6 4-2.7 5.7l3.9 2.7 1.2-6 3.2-.5-1.7 8.3 6 4-1.6 2.6-5.2-3.4c-1 3.3-3 5.3-5.7 5.7zm-.3-18.5c-.2-1.3-1.4-2.2-2.6-2-1.2.2-2.1 1.3-1.9 2.7.2 1.3 1 2.1 2.6 3 1.4-1.2 2.1-2.4 1.9-3.7zm-1.9 7.2c-1.9 1.6-2.6 3.1-2.3 5 .3 2.1 2 3.4 3.9 3.1 1.8-.3 3-1.7 3.7-4.4l-5.3-3.7z"/><path id="XMLID_826_" class="st4" d="M254.3 352.7l-7.9-21.7 3.1-1.1 16.2 12.7-6.1-16.4 3-1.1 7.9 21.7-2.9 1.1-16.6-13.1 6.3 16.8-3 1.1z"/><path id="XMLID_824_" class="st4" d="M285.5 339.6l-.9-1.7c-.4 1.9-1.3 3.3-3 4.1-3.7 1.9-7.2.5-9.5-4l-4.5-9 2.7-1.4 4.1 8.2c1.7 3.4 3.7 4.5 6 3.3 1.4-.7 2.2-2 2.2-3.6 0-1.3-.6-2.6-1.5-4.3l-3.6-7.1 2.7-1.3 7.8 15.6-2.5 1.2z"/><path id="XMLID_822_" class="st4" d="M292.2 335.8l-9-14.9 2.4-1.5 1 1.7c.1-1.9.8-3.1 2.2-4l1.7 2.8c-2.3 1.7-2.4 3.4-.8 6l5 8.3-2.5 1.6z"/><path id="XMLID_820_" class="st4" d="M298.8 325c1.1 1.6 2.8 2 4 1.1 1.2-.8 1.4-2.2.6-3.4-.7-1-1.7-1.3-3.2-1-1.6.4-2.7.7-3.6.6-1.5-.1-2.7-.8-3.6-2.2-1.6-2.3-1.1-5.4 1.1-7 2.4-1.6 4.9-1.2 6.8 1.3l-2.4 1.7c-.8-1-1.9-1.2-2.8-.5-.9.6-1.1 1.8-.4 2.7 1 1.5 2.2.8 4.5.3 2.7-.6 4.4 0 5.9 2.3 1.8 2.6 1.2 5.8-1.3 7.6-2.5 1.8-5.5 1.1-7.9-2l2.3-1.5z"/><path id="XMLID_817_" class="st4" d="M315.9 315.8c1.5-1.3 2.2-3.2 1.8-5.2l2.6-2.2c1.3 4 .4 7.4-2.4 9.8-1.9 1.6-4.1 2.2-6.5 1.9-2.3-.3-4.6-1.5-6.1-3.3-1.6-1.9-2.3-4.1-2.3-6.4.1-2.6 1.1-4.6 3-6.2 2.3-1.9 5.2-2.5 8.2-1.6 1.8.6 3.3 1.7 4.9 3.5.1.1.2.2.3.4l-10.9 9.1c2.3 2 5.3 2 7.4.2zm-7.8-9.4c-2 1.7-2.5 4.4-1.3 7l8.2-6.9c-2.4-1.7-4.9-1.7-6.9-.1z"/><path id="XMLID_815_" class="st4" d="M326.9 309.6l-12.3-12.4 2-2 1.4 1.4c-.4-1.8 0-3.2 1.2-4.4l2.3 2.3c-1.9 2.2-1.5 3.9.6 6l6.8 6.9-2 2.2z"/><path id="XMLID_813_" class="st4" d="M322.7 289l12.8 5.1-6.6-12.2 2.1-2.5 11.5 22-2.1 2.4-3.1-5.8-16.8-6.5 2.2-2.5z"/></g><g id="XMLID_717_"><path id="XMLID_809_" class="st4" d="M69.9 328.9l9.7-5.4.9.8-3.8 10.4-.8-.7 1.2-3.3-3.4-2.9-3 1.7-.8-.6zm9.4-4.3l-4.8 2.8 2.9 2.4 1.9-5.2z"/><path id="XMLID_807_" class="st4" d="M86.9 329.6l1.2.9-2.5 9.3 8.1-5.2 1.2.9-6.1 8.4-.8-.6 5.4-7.4-8.3 5.3-.7-.5 2.6-9.5-5.4 7.4-.8-.6 6.1-8.4z"/><path id="XMLID_804_" class="st4" d="M92.8 342.1c-.9 1.5-.5 3.1.9 4 .9.6 2.1.6 3.1 0l.9.6c-1.6 1.1-3.2 1.2-4.5.2-1.9-1.2-2.2-3.8-1-5.6 1.3-2 3.6-2.6 5.6-1.3 1.9 1.2 2.3 3.6.8 5.8v.1l-5.8-3.8zm4.3-1.4c-1.2-.8-2.7-.6-3.8.7l4.8 3.1c.6-1.6.3-2.9-1-3.8z"/><path id="XMLID_802_" class="st4" d="M109.2 347.1c1.9 1.1 1.9 2.7.5 5l-2 3.4-.8-.5 2.1-3.6c1-1.6 1-2.7-.4-3.5-.7-.4-1.5-.4-2.2 0-.6.3-.9.9-1.4 1.7l-1.9 3.3-.8-.5 2.2-3.8c.9-1.5.8-2.6-.5-3.4-.8-.4-1.5-.5-2.2-.1-.6.3-.9.9-1.4 1.7l-1.9 3.3-.8-.5 3.9-6.8.8.5-.4.8c.9-.3 1.7-.2 2.6.3 1 .6 1.6 1.6 1.6 2.5 1-.4 2-.4 3 .2z"/><path id="XMLID_799_" class="st4" d="M113.9 349.6c-.1.2-.3.5-.4.8-.1.2-.2.3-.3.5 1.2-.5 2.3-.5 3.3 0 1.9 1 2.6 3.4 1.5 5.4-1 2.1-3.3 2.9-5.4 1.9-1-.5-1.6-1.3-1.9-2.5l-.5 1.1-.9-.4 4.7-9.3.9.4-1 2.1zm-.8 7.8c1.4.7 3.2.1 4.1-1.6.8-1.6.2-3.4-1.2-4.1-1.4-.7-3.2 0-4 1.6-.8 1.6-.2 3.5 1.1 4.1z"/><path id="XMLID_796_" class="st4" d="M119.7 357.4c-.6 1.6 0 3.2 1.5 3.8 1 .5 2.2.3 3.1-.5l1 .5c-1.4 1.3-2.9 1.6-4.5 1-2.1-.9-2.8-3.4-1.9-5.4 1-2.1 3.2-3.1 5.3-2.1 2 .9 2.8 3.2 1.7 5.6v.1l-6.2-3zm4-2c-1.3-.6-2.7-.1-3.6 1.3l5.2 2.4c.4-1.8-.2-3.1-1.6-3.7z"/><path id="XMLID_794_" class="st4" d="M125.6 364l3-7.2.8.3-.3.8c.7-.5 1.3-.5 2-.3l-.4 1c-1.3-.4-1.9.1-2.4 1.3l-1.8 4.4-.9-.3z"/><path id="XMLID_791_" class="st4" d="M138.8 360.4c2.1.7 3.1 3.1 2.4 5.2-.8 2.2-3 3.4-5.1 2.7-2.1-.8-3-3.1-2.3-5.2.8-2.2 3.1-3.4 5-2.7zm-2.3 7c1.5.5 3.2-.3 3.8-2.1.6-1.8-.1-3.4-1.7-4-1.4-.5-3.1.3-3.7 2.1-.7 1.7 0 3.4 1.6 4z"/><path id="XMLID_789_" class="st4" d="M141.6 369.9l2.1-6.6-1-.3.3-.8.9.3c0-.1 0-.1.1-.2.5-1.6 1.5-2.1 3.1-1.6h.1l-.3.9c-1.1-.3-1.6-.1-2 1 0 .1 0 .1-.1.2l1.5.5-.3.8-1.5-.5-2.1 6.6-.8-.3z"/><path id="XMLID_787_" class="st4" d="M151.4 365.7l-1.4-.4.3-1 1.4.4.7-2.5.9.3-.7 2.5 1.4.4-.3 1-1.4-.4-1.8 6.6-.9-.3 1.8-6.6z"/><path id="XMLID_785_" class="st4" d="M156.2 363.3l-.8 3.4c.7-.6 1.6-.7 2.5-.5 2.2.5 2.7 2 2 4.6l-.9 3.9-.9-.2.9-3.9c.5-1.9.3-3-1.4-3.5-.9-.2-1.6 0-2.1.6-.5.5-.6 1.1-.8 2l-.9 3.7-.9-.2 2.4-10.1.9.2z"/><path id="XMLID_782_" class="st4" d="M162 371.6c-.2 1.7.8 3.1 2.3 3.4 1.1.2 2.2-.2 2.9-1.2l1.1.2c-1 1.6-2.5 2.3-4.1 2-2.2-.4-3.5-2.7-3.1-4.8.4-2.3 2.4-3.8 4.7-3.3 2.2.4 3.5 2.5 3 5v.1l-6.8-1.4zm3.5-2.9c-1.4-.3-2.7.5-3.3 2.1l5.6 1.1c0-1.8-.8-2.9-2.3-3.2z"/><path id="XMLID_779_" class="st4" d="M177 367.2c1.1.1 1.8.3 2.3.7.8.6 1.2 1.6 1 2.7-.1 1-.7 1.9-1.5 2.3-.6.3-1.4.3-2.4.2l-1.3-.2-.6 4.3-1-.1 1.3-10.3 2.2.4zm-1.8 4.8l1.4.2c1.6.2 2.4-.3 2.6-1.6.2-1.5-.6-2.1-2.2-2.3l-1.4-.2-.4 3.9z"/><path id="XMLID_777_" class="st4" d="M180.7 378.1l.8-7.8.9.1-.1.9c.6-.7 1.1-.9 1.9-.8l-.1 1.1c-1.3 0-1.8.6-1.9 1.9l-.5 4.7-1-.1z"/><path id="XMLID_774_" class="st4" d="M185.3 375c0 1.8 1.1 2.9 2.7 3.1 1.1.1 2.1-.5 2.7-1.6l1.1.1c-.8 1.7-2.2 2.6-3.8 2.4-2.3-.2-3.8-2.2-3.6-4.4.2-2.3 1.9-4 4.2-3.8 2.2.2 3.7 2 3.6 4.6v.1l-6.9-.5zm3-3.3c-1.4-.1-2.6.8-3 2.5l5.7.4c-.2-1.9-1.1-2.8-2.7-2.9z"/><path id="XMLID_772_" class="st4" d="M196.4 375.7l-3.2-.1v-.9l3.2.1v.9z"/><path id="XMLID_770_" class="st4" d="M198.5 376.3c0 1.3.8 2.1 1.8 2.1 1.2 0 1.9-.8 1.9-2.1 0-1.5-.9-1.7-2.3-2.2-1.4-.5-2.1-1.2-2.1-2.6 0-1.6 1.1-2.8 2.7-2.8 1.5 0 2.4 1 2.5 2.8h-.9c-.1-1.1-.7-1.8-1.6-1.8-1 0-1.7.8-1.7 1.8 0 .5.2.9.6 1.2.5.4 1.2.5 2 .8 1.3.5 1.8 1.3 1.8 2.6 0 2-1.1 3.4-2.9 3.3-1.6 0-2.7-1.3-2.8-3.2l1 .1z"/><path id="XMLID_768_" class="st4" d="M207.9 372c-1.5.1-2.8 1.4-2.7 3.3.1 1.8 1.4 3.1 3 3.1 1.1 0 2.1-.7 2.5-1.8h1.1c-.5 1.7-1.8 2.7-3.5 2.8-2.3.1-4-1.8-4.1-4-.1-2.3 1.6-4.2 3.8-4.3 1.6-.1 3 .8 3.7 2.5h-1.1c-.7-1.1-1.5-1.6-2.7-1.6z"/><path id="XMLID_766_" class="st4" d="M213.6 368.5l.3 3.5c.5-.7 1.3-1.2 2.2-1.3 2.2-.2 3.2 1.1 3.4 3.8l.3 4-1 .1-.3-4c-.2-2-.6-3-2.4-2.9-.9.1-1.5.5-1.9 1.2-.3.6-.2 1.3-.2 2.2l.3 3.8-1 .1-.8-10.4 1.1-.1z"/><path id="XMLID_763_" class="st4" d="M224 369.8c2.2-.3 4.2 1.4 4.4 3.6.3 2.3-1.2 4.4-3.4 4.7-2.3.3-4.1-1.5-4.4-3.6-.2-2.4 1.4-4.5 3.4-4.7zm.9 7.3c1.6-.2 2.7-1.7 2.5-3.5-.2-1.9-1.7-3-3.3-2.8-1.4.2-2.6 1.6-2.4 3.5.2 1.8 1.6 3 3.2 2.8z"/><path id="XMLID_760_" class="st4" d="M232.4 368.6c2.2-.4 4.2 1.2 4.6 3.4.4 2.3-1 4.5-3.1 4.8-2.2.4-4.2-1.3-4.5-3.4-.5-2.4 1-4.5 3-4.8zm1.2 7.2c1.6-.3 2.6-1.8 2.3-3.6-.3-1.9-1.8-2.9-3.4-2.7-1.4.2-2.6 1.7-2.3 3.6.4 1.9 1.8 3 3.4 2.7z"/><path id="XMLID_758_" class="st4" d="M236.9 365.5l1-.2 2 10.2-1 .2-2-10.2z"/><path id="XMLID_756_" class="st4" d="M245.7 374.2l-2.4-10.1 1-.2 2.2 9.1 3.4-.8.2 1-4.4 1z"/><path id="XMLID_753_" class="st4" d="M251 369.2c.6 1.7 2.1 2.4 3.6 2 1.1-.3 1.8-1.2 2-2.4l1.1-.3c-.2 1.9-1.2 3.1-2.8 3.6-2.2.6-4.3-.8-4.9-2.9-.6-2.2.4-4.4 2.7-5.1 2.2-.6 4.2.6 4.9 3.2v.1l-6.6 1.8zm1.8-4.1c-1.4.4-2.2 1.7-2 3.3l5.5-1.6c-.8-1.6-2-2.2-3.5-1.7z"/><path id="XMLID_750_" class="st4" d="M263.3 369.5c-2.2.7-4.3-.5-5-2.7-.7-2.2.3-4.4 2.5-5.2 1.1-.4 2.2-.2 3.1.5l-.4-1.2.9-.3 2.5 7.4-.9.3-.4-1.2c-.3 1.1-1.1 2-2.3 2.4zm-2.2-6.9c-1.5.5-2.4 2.2-1.8 4 .6 1.7 2.3 2.5 3.7 2 1.4-.5 2.3-2.2 1.7-4-.5-1.6-2.3-2.5-3.6-2z"/><path id="XMLID_748_" class="st4" d="M268.5 367.5l-2.7-7.4.9-.3.3.8c.2-.8.6-1.3 1.3-1.6l.4 1c-1.2.6-1.3 1.4-.9 2.6l1.6 4.4-.9.5z"/><path id="XMLID_746_" class="st4" d="M269.9 358.6l.3.8c.3-.9.9-1.5 1.8-1.9 1-.4 2-.3 2.8.2.7.5 1 1.2 1.5 2.3l1.5 3.8-.9.4-1.6-4.1c-.7-1.7-1.6-2.2-3-1.6-.8.3-1.3.9-1.4 1.7-.1.7.2 1.3.5 2.1l1.4 3.5-.9.4-2.9-7.3.9-.3z"/><path id="XMLID_743_" class="st4" d="M275.9 355.1l-.6-1.5.9-.4.6 1.5-.9.4zm.4.8l.9-.4 3.1 7.2-.9.4-3.1-7.2z"/><path id="XMLID_741_" class="st4" d="M279.5 354.5l.4.8c.2-.9.8-1.5 1.7-2 1-.5 2-.4 2.8.1.7.4 1.1 1.2 1.6 2.2l1.7 3.7-.9.4-1.9-4c-.8-1.6-1.7-2.1-3.1-1.5-.8.4-1.3 1-1.3 1.8 0 .7.2 1.3.6 2.1l1.6 3.4-.9.4-3.3-7.1 1-.3z"/><path id="XMLID_738_" class="st4" d="M293.4 358.8c1.5-.8 2-2.4 1-4.2 0-.1-.1-.1-.1-.2-.2 1.3-.8 2.2-1.8 2.7-2 1.1-4.3.2-5.4-1.8-1.1-2.1-.4-4.4 1.5-5.4 1.1-.6 2.1-.6 3.2 0l-.6-1.1.8-.4 3 5.8c1.3 2.5.7 4.6-1.3 5.6-1.5.8-3.1.6-4.1-.6l1-.5c.8.5 1.8.6 2.8.1zm-1.4-2.5c1.3-.7 1.9-2.6 1.1-4.1-.9-1.6-2.7-2.2-4-1.6-1.3.7-1.9 2.5-1.1 4.1.9 1.8 2.7 2.3 4 1.6z"/><path id="XMLID_735_" class="st4" d="M299.9 352.9l-2.1-10.9 1-.6 8.7 6.8-.9.5-2.7-2.2-3.8 2.3.7 3.4-.9.7zm-1.1-10.4l1.1 5.4 3.2-2-4.3-3.4z"/><path id="XMLID_733_" class="st4" d="M302.6 339l.8-.5 5.6 8.7-.8.5-5.6-8.7z"/><path id="XMLID_731_" class="st4" d="M304.6 337.7l.8-.5 5.8 8.6-.8.5-5.8-8.6z"/><path id="XMLID_728_" class="st4" d="M307.6 337.6l-.9-1.3.8-.6.9 1.3-.8.6zm.5.8l.8-.6 4.4 6.5-.8.6-4.4-6.5z"/><path id="XMLID_725_" class="st4" d="M317.8 341.4c-1.8 1.3-4.2.8-5.5-1-1.4-1.9-1.1-4.3.8-5.7.9-.7 2.1-.9 3.1-.5l-.7-1 .8-.6 4.6 6.3-.8.6-.7-1c-.1 1.1-.6 2.2-1.6 2.9zm-4.3-5.9c-1.3.9-1.6 2.8-.5 4.3s2.9 1.7 4.2.8c1.2-.9 1.5-2.8.4-4.3-.9-1.3-2.9-1.7-4.1-.8z"/><path id="XMLID_723_" class="st4" d="M318 331.2l.6.7c0-.9.4-1.7 1.2-2.3.9-.7 1.9-.9 2.7-.6.8.3 1.3.9 2 1.8l2.6 3.2-.7.6-2.7-3.4c-1.1-1.4-2.1-1.7-3.3-.7-.7.6-1 1.3-.9 2 .1.7.5 1.2 1.1 1.9l2.4 3-.7.6-4.9-6.1.6-.7z"/><path id="XMLID_721_" class="st4" d="M326.5 325.2c-1.1 1-1.2 2.9 0 4.3s3 1.6 4.2.5c.9-.7 1.2-1.8.8-3l.8-.7c.7 1.7.3 3.3-1 4.4-1.7 1.5-4.2 1.1-5.6-.6-1.5-1.8-1.4-4.3.2-5.7 1.2-1.1 2.8-1.2 4.4-.4l-.8.7c-1.1-.4-2.1-.3-3 .5z"/><path id="XMLID_718_" class="st4" d="M333.1 324c1.3 1.2 2.9 1.2 4.1.1.8-.8 1.1-1.9.7-3l.8-.8c.7 1.8.4 3.3-.8 4.5-1.6 1.6-4.2 1.3-5.7-.3-1.6-1.7-1.7-4.1 0-5.7 1.6-1.5 4-1.4 5.8.5l.1.1-5 4.6zm-.3-4.5c-1 1-1.2 2.5-.2 3.9l4.2-3.9c-1.5-1.1-2.9-1.1-4 0z"/></g><g id="XMLID_407_"><g id="XMLID_413_"><path id="XMLID_295_" class="st1" d="M197.4 215.6c0 1.1 0 2.2-.1 3.3.1-1.1.1-2.2.1-3.3z"/><path id="XMLID_294_" class="st1" d="M190.3 255.5c-.3 3.8-.7 7.6-.3 11.3-.4-3.8 0-7.6.3-11.3z"/><path id="XMLID_293_" class="st1" d="M236.3 232.2v0z"/><path id="XMLID_292_" class="st1" d="M199.7 228v-2.6 2.6z"/><path id="XMLID_291_" class="st1" d="M199.6 230.6c0-.7 0-1.4.1-2.2-.1.8-.1 1.5-.1 2.2z"/><path id="XMLID_290_" class="st1" d="M190.5 252.3v-.5.5z"/><path id="XMLID_289_" class="st1" d="M181.6 267.1c-.1 0-.1-.1 0 0-.1-.1-.1 0 0 0z"/><path id="XMLID_288_" class="st1" d="M190.3 254.9v-.4c.1.1.1.3 0 .4z"/><path id="XMLID_287_" class="st1" d="M190.5 252.8v-.4.4z"/><path id="XMLID_286_" class="st1" d="M199.6 230.9c-.3 11.8-1.1 23.7-1 35.6-.1-11.8.7-23.7 1-35.6z"/><path id="XMLID_285_" class="st1" d="M190.3 255.4v-.5.5z"/><path id="XMLID_284_" class="st1" d="M190.4 253.3v-.3.3z"/><path id="XMLID_283_" class="st1" d="M190.4 253.9v-.3.3z"/><path id="XMLID_282_" class="st1" d="M190.4 254.4v-.4.4z"/><path id="XMLID_281_" class="st1" d="M236.6 228.3v.4c-.1-.1-.1-.3 0-.4z"/><path id="XMLID_280_" class="st1" d="M220.3 248.5c0-.1.1-.3.1-.4-.1.1-.1.2-.1.4z"/><path id="XMLID_279_" class="st1" d="M220.4 247.8c0-.2.1-.4.1-.6 0 .2 0 .4-.1.6z"/><path id="XMLID_278_" class="st1" d="M220.1 249.1c0-.1.1-.3.1-.4 0 .1 0 .3-.1.4z"/><path id="XMLID_277_" class="st1" d="M219.9 249.8c0-.1.1-.3.1-.4 0 .1 0 .2-.1.4z"/><path id="XMLID_276_" class="st1" d="M236.4 230.9v0z"/><path id="XMLID_275_" class="st1" d="M236.5 229.6v0z"/><path id="XMLID_274_" class="st1" d="M181.4 266.5c0 .1.1.3.1.4 0-.1-.1-.2-.1-.4z"/><path id="XMLID_273_" class="st1" d="M219.8 250.5c0-.2.1-.3.1-.5-.1.1-.1.3-.1.5z"/><path id="XMLID_272_" class="st1" d="M207.9 142.2v-.9.9z"/><path id="XMLID_271_" class="st1" d="M207.9 144.4c-.4 42.7-.6 61.3-.9 104.1.2-36.2.8-89.1.9-104.3v.2z"/><path id="XMLID_270_" class="st1" d="M207 249.6v-1.2 1.2z"/><path id="XMLID_269_" class="st1" d="M219.6 251.2c.1-.2.1-.4.2-.5-.1.1-.2.3-.2.5z"/><path id="XMLID_268_" class="st1" d="M207 249.9v0z"/><path id="XMLID_267_" class="st1" d="M207 251c0 5.1-.4 10.2-.1 15.4-.3-5.2.1-10.3.1-15.4z"/><path id="XMLID_266_" class="st1" d="M196.3 266.6c.7-15.7.8-31.4 1.1-47.2-.3 15.7-.4 31.5-1.1 47.2z"/><path id="XMLID_265_" class="st1" d="M140.3 263.1c-.1-.1-.2-.3-.3-.4.1.1.2.3.3.4z"/><path id="XMLID_264_" class="st1" d="M139.9 262.5c-.1-.1-.2-.3-.3-.4.1.1.2.3.3.4z"/><path id="XMLID_263_" class="st1" d="M140.7 263.7c-.1-.1-.2-.3-.3-.4.1.1.2.2.3.4z"/><path id="XMLID_262_" class="st1" d="M141.1 264.3c-.1-.1-.2-.3-.3-.4.1.1.2.2.3.4z"/><path id="XMLID_261_" class="st1" d="M138.7 260.6c0-.1-.1-.2-.1-.2s0 .1.1.2z"/><path id="XMLID_260_" class="st1" d="M139.5 261.9c-.1-.1-.1-.2-.2-.4 0 .1.1.3.2.4z"/><path id="XMLID_259_" class="st1" d="M139.1 261.2c-.1-.1-.1-.2-.2-.3.1.1.1.2.2.3z"/><path id="XMLID_258_" class="st1" d="M142.4 266c-.1-.2-.3-.3-.4-.5.1.1.3.3.4.5z"/><path id="XMLID_257_" class="st1" d="M141.5 264.8c-.1-.2-.2-.3-.4-.5.2.2.3.4.4.5z"/><path id="XMLID_256_" class="st1" d="M143.3 267c-.1-.2-.3-.3-.4-.5.1.2.2.4.4.5z"/><path id="XMLID_255_" class="st1" d="M143.9 267.7c-.2-.2-.4-.4-.6-.7.2.3.4.5.6.7z"/><path id="XMLID_254_" class="st1" d="M142.8 266.5c-.1-.2-.3-.3-.4-.5.2.2.3.3.4.5z"/><path id="XMLID_253_" class="st1" d="M142 265.4c-.1-.2-.2-.3-.4-.5.1.2.2.3.4.5z"/><path id="XMLID_252_" class="st1" d="M175.6 253.1c.1.2.1.3.2.5-.1-.1-.2-.3-.2-.5z"/><path id="XMLID_251_" class="st1" d="M176.1 254.3c0 .1.1.2.1.3-.1-.1-.1-.2-.1-.3z"/><path id="XMLID_250_" class="st1" d="M180.6 264.2c.1.1.1.3.2.4-.1-.1-.2-.3-.2-.4z"/><path id="XMLID_249_" class="st1" d="M180 262.8c.1.1.1.3.2.4-.1-.1-.1-.3-.2-.4z"/><path id="XMLID_248_" class="st1" d="M180.2 263.3c.1.1.1.3.2.4-.1-.2-.2-.3-.2-.4z"/><path id="XMLID_247_" class="st1" d="M180.4 263.7c.1.1.1.3.2.4-.1-.1-.2-.2-.2-.4z"/><path id="XMLID_246_" class="st1" d="M181.1 265.6c0 .1.1.3.1.4 0-.1-.1-.3-.1-.4z"/><path id="XMLID_245_" class="st1" d="M180.9 265.1c.1.1.1.3.1.4 0-.1 0-.2-.1-.4z"/><path id="XMLID_244_" class="st1" d="M180.7 264.7c.1.1.1.3.2.4-.1-.2-.1-.3-.2-.4z"/><path id="XMLID_243_" class="st1" d="M176.7 255.6c.1.1.1.2.2.3-.1 0-.2-.2-.2-.3z"/><path id="XMLID_242_" class="st1" d="M176.5 255.2c0 .1.1.2.1.3 0-.1-.1-.2-.1-.3z"/><path id="XMLID_241_" class="st1" d="M179.8 262.3c.1.1.1.3.2.4-.1-.1-.1-.2-.2-.4z"/><path id="XMLID_240_" class="st1" d="M175.8 253.8c0 .1.1.2.1.3 0-.1 0-.2-.1-.3z"/><path id="XMLID_239_" class="st1" d="M181.2 266.1c0 .1.1.3.1.4 0-.1 0-.3-.1-.4z"/><path id="XMLID_238_" class="st1" d="M176.9 256.1c.1.1.1.3.2.4-.1-.2-.2-.3-.2-.4z"/><path id="XMLID_237_" class="st1" d="M179.6 261.9c.1.1.1.3.2.4-.1-.1-.1-.3-.2-.4z"/><path id="XMLID_236_" class="st1" d="M177.1 256.5c.8 1.8 1.7 3.6 2.5 5.3-.8-1.7-1.7-3.5-2.5-5.3z"/><path id="XMLID_235_" class="st1" d="M176.3 254.7c0 .1.1.2.1.3-.1-.1-.1-.2-.1-.3z"/><path id="XMLID_234_" class="st1" d="M246.3 256.9v0z"/><path id="XMLID_233_" class="st1" d="M246.3 257.6v0z"/><path id="XMLID_232_" class="st1" d="M246.3 256.2v0z"/><path id="XMLID_231_" class="st1" d="M246.3 258.2v0z"/><path id="XMLID_230_" class="st1" d="M246.2 255.6v0z"/><path id="XMLID_229_" class="st1" d="M246.3 259.5v0z"/><path id="XMLID_228_" class="st1" d="M246 247.7v0z"/><path id="XMLID_227_" class="st1" d="M246.3 258.9v0z"/><path id="XMLID_226_" class="st1" d="M246 249.3v0z"/><path id="XMLID_225_" class="st1" d="M246 250v0z"/><path id="XMLID_224_" class="st1" d="M246 248.6v0z"/><path id="XMLID_223_" class="st1" d="M246.1 251.8c0 1 .1 2 .1 3 0-1-.1-2-.1-3z"/><path id="XMLID_222_" class="st1" d="M246.1 251.3v0z"/><path id="XMLID_221_" class="st1" d="M246.2 254.9v0z"/><path id="XMLID_220_" class="st1" d="M246.3 260.2v0z"/><path id="XMLID_219_" class="st1" d="M246.1 266.7c0 .2 0 .4-.1.6 0-.2 0-.4.1-.6z"/><path id="XMLID_218_" class="st1" d="M246.3 260.9v0z"/><path id="XMLID_217_" class="st1" d="M236.3 233.5v.6c-.1-.2-.1-.4 0-.6z"/><path id="XMLID_216_" class="st1" d="M245.9 267.8v-.4c.1.1.1.2 0 .4z"/><path id="XMLID_215_" class="st1" d="M246.2 265.5v.5c-.1-.2 0-.4 0-.5z"/><path id="XMLID_214_" class="st1" d="M246.1 266.1v0z"/><path id="XMLID_213_" class="st1" d="M246.3 262.2v0z"/><path id="XMLID_212_" class="st1" d="M246.2 264.8v0z"/><path id="XMLID_211_" class="st1" d="M246.3 261.5v0z"/><path id="XMLID_210_" class="st1" d="M246.3 262.8v0z"/><path id="XMLID_209_" class="st1" d="M246.2 264.2v0z"/><path id="XMLID_208_" class="st1" d="M246.3 263.5v0z"/><path id="XMLID_207_" class="st1" d="M246 250.6v.4c.1-.1.1-.3 0-.4z"/><path id="XMLID_206_" class="st1" d="M235.2 245.2c0 .2 0 .3-.1.5 0-.1 0-.3.1-.5z"/><path id="XMLID_205_" class="st1" d="M219.5 251.2c-1.4 5-3.3 10-3 15.1-.2-5.1 1.6-10.1 3-15.1z"/><path id="XMLID_204_" class="st1" d="M235.3 243.9c0 .2 0 .3-.1.5.1-.1.1-.3.1-.5z"/><path id="XMLID_203_" class="st1" d="M234.7 249.3v0z"/><path id="XMLID_202_" class="st1" d="M234.5 250.7z"/><path id="XMLID_201_" class="st1" d="M234.9 247.9v.3c-.1-.1-.1-.2 0-.3z"/><path id="XMLID_200_" class="st1" d="M235.5 242.6c0 .2 0 .4-.1.5 0-.1 0-.3.1-.5z"/><path id="XMLID_199_" class="st1" d="M235 246.6v0z"/><path id="XMLID_198_" class="st1" d="M236 237.4c0 .2 0 .4-.1.6 0-.2 0-.4.1-.6z"/><path id="XMLID_197_" class="st1" d="M236.1 236.1v.6c-.1-.2-.1-.4 0-.6z"/><path id="XMLID_196_" class="st1" d="M236.2 234.8v.6c-.1-.2 0-.4 0-.6z"/><path id="XMLID_195_" class="st1" d="M235.7 240c0 .2 0 .4-.1.6.1-.2.1-.4.1-.6z"/><path id="XMLID_194_" class="st1" d="M235.8 238.7c0 .2 0 .4-.1.6.1-.2.1-.4.1-.6z"/><path id="XMLID_193_" class="st1" d="M235.6 241.3c0 .2 0 .4-.1.5 0-.1.1-.3.1-.5z"/><path id="XMLID_192_" class="st1" d="M244.2 250.7c.1-.2.2-.3.3-.5-.1.2-.2.3-.3.5z"/><path id="XMLID_191_" class="st1" d="M245 249.4c.1-.1.2-.3.2-.4-.1.1-.2.2-.2.4z"/><path id="XMLID_190_" class="st1" d="M242.8 253.3c.1-.2.2-.3.3-.5-.1.2-.2.3-.3.5z"/><path id="XMLID_189_" class="st1" d="M240.3 258.4c0-.1.1-.1.1-.2 0 .1-.1.1-.1.2z"/><path id="XMLID_188_" class="st1" d="M243.5 252c.1-.2.2-.3.3-.5-.1.2-.2.3-.3.5z"/><path id="XMLID_187_" class="st1" d="M240.9 257.2c.1-.1.1-.3.2-.4-.1.1-.1.2-.2.4z"/><path id="XMLID_186_" class="st1" d="M241.5 255.9c.1-.2.2-.3.2-.5 0 .2-.1.3-.2.5z"/><path id="XMLID_185_" class="st1" d="M236.3 266.7c0-.1.1-.1.1-.2 0 .1-.1.2-.1.2z"/><path id="XMLID_184_" class="st1" d="M242.2 254.6c.1-.2.2-.3.3-.5-.2.2-.3.3-.3.5z"/><path id="XMLID_183_" class="st1" d="M237.6 264.1z"/><path id="XMLID_182_" class="st1" d="M236.9 265.5c0-.1.1-.1.1-.2 0 0 0 .1-.1.2z"/><path id="XMLID_181_" class="st2" d="M184.7 272l-35 .4c-.3 0-2.2.2-5 .2h-1.8c0 .1.1.1.1.2 3.7.2 7.5.1 11.3-.4 29.3-.2 58.7.1 88 0-9.4-.8-19.5-1.2-30.5-1.2-8.6 0-17.7.3-27.1.8z"/><path id="XMLID_180_" class="st5" d="M235.2 155.2l-.2-2.8-22.9 15.4.1 5.6z"/><g id="XMLID_596_"><path id="XMLID_179_" class="st1" d="M235.2 155.2l-.2-2.8-22.9 15.4.1 5.6z"/><path id="XMLID_178_" class="st1" d="M182.1 179.8c1.5 1.4 2.8 2.9 4.3 4.3-1.5-1.6-3.1-3.2-4.3-4.3z"/><path id="XMLID_177_" class="st1" d="M260.6 264.8c2.6-2.1 4.9-4.8 6.2-8.1-3.7 1.2-5.8 4.6-6.2 8.1z"/><path id="XMLID_176_" class="st5" d="M166.6 165.3s.2.2.4.3c3.3 3.1 11.1 11.1 14 13.3.3.3.7.6 1.1.9 1.3 1.1 2.8 2.7 4.3 4.3 2.7 2.9 5.2 5.8 5.2 5.8l.2-7s-17.1-16.3-24.5-22.5c-.2 1.5-.7 4.9-.7 4.9z"/></g><path id="XMLID_175_" class="st6" d="M266.8 256.7c-3.6 1.2-5.8 4.6-6.2 8.1 2.6-2.1 4.9-4.7 6.2-8.1z"/><path id="XMLID_174_" class="st7" d="M170.1 77c-3.1-3.9-8.2-5.5-12.8-6.8 3.2 6.9 7.6 13.4 12.1 19.5.3-4.2 1.5-8.4.7-12.7z"/><path id="XMLID_173_" class="st7" d="M162.5 89.5c-.5-4.8-3.8-8.7-6.5-12.6-1.3 3-1.3 6.3-1 9.5 1.3 2.6 4.9 2.5 7.5 3.1z"/><path id="XMLID_172_" class="st7" d="M178.6 103.5c1-4.9 3-9.7 3.2-14.8-1-3.6-4-6.1-6.7-8.6-1.6 4.8-2.2 9.8-2.6 14.9.8 3.5 3.4 6.2 6.1 8.5z"/><path id="XMLID_171_" class="st7" d="M205 73.7c-.2-5.5.4-11.1.7-16.7-4.8 3.6-8.1 14.1-.7 16.7z"/><path id="XMLID_170_" class="st7" d="M209.8 57.4c-1.3 6.8-1.2 13.8-1.7 20.7 2.8-1.3 5.4-2.9 7.9-4.7-.2-5.7-2-11.8-6.2-16z"/><path id="XMLID_169_" class="st7" d="M204.1 89c1.5-6-1.9-11.6-5.5-16-2.6 2.6-2.6 6.3-2.5 9.7 2.6 2.3 5 4.7 8 6.3z"/><path id="XMLID_168_" class="st7" d="M217.5 84.6c1.3-2.3.2-5.1-1.1-7.2-2.8 1.6-5.9 2.5-8.3 5-.6 3.6-.1 7.1 0 10.7 3.4-2.4 6.7-5.3 9.4-8.5z"/><path id="XMLID_167_" class="st8" d="M195.2 101.3c2.7 3.6 4.7 7.6 7.9 10.8-.6-5.2.2-10.7-1.1-15.9-2.7-3.1-4.8-6.9-8.8-8.6.4 4.4-1.3 9.8 2 13.7z"/><path id="XMLID_166_" class="st9" d="M218.9 89.1c-3.8 3.1-8.6 5.6-11.4 9.6-.5 7.8-.5 15.8-.2 23.6 9.2-7.9 10.3-21.7 11.6-33.2z"/><path id="XMLID_165_" class="st7" d="M169.4 97.9c-2.7-4.4-8.8-4.8-13.5-4.2.5 3.3 1.3 6.5 2.7 9.5 5.1.8 10.1 1.7 15.2 2-.9-2.8-2.5-5.1-4.4-7.3z"/><path id="XMLID_164_" class="st9" d="M196.6 121.9c-1.8-6.9-5-13.1-8.1-19.5-1.1-2.1-1.9-4.4-3.9-5.7-1 3.7-1.9 7.4-2.6 11.1 4.6 4.9 8.9 10.3 14.6 14.1z"/><path id="XMLID_163_" class="st9" d="M178.4 109.5c-6.2-.5-12.3-1.2-18.6-1.8 3 4.3 6 8.9 10.8 11.3 3.4-.4 6.6-2.1 9.9-3.1-.1-2.4-1.1-4.3-2.1-6.4z"/><path id="XMLID_162_" class="st8" d="M184.2 117.4c-2.7 2.8-6.6 4-9.7 6.4 5.7 2.3 12 2.8 18.2 2.2-1.9-3.7-5.4-6.1-8.5-8.6z"/><path id="XMLID_161_" class="st7" d="M254.6 81.2c-2.2 2.2-2 5.7-2.7 8.6 4.7-2.4 8.6-6 12.5-9.6-3.4.1-6.7.1-9.8 1z"/><path id="XMLID_160_" class="st7" d="M267 82.7c-6.1 3.2-10.8 8.2-16 12.5 2.9 1.1 5.9 1.7 8.9 2.3 3-4.5 5.5-9.4 7.1-14.8z"/><path id="XMLID_159_" class="st7" d="M249 84c-5.2-.2-10.3 1.5-14.1 5-1.2 4.5-.6 9.5-.9 14 3.7-2.4 7.4-5.1 10.6-8.3 2-3.4 3.1-7.2 4.4-10.7z"/><path id="XMLID_158_" class="st7" d="M236.6 107c4.9 1.4 9.8 2.9 14.8 4.3 2.5-2.8 4.6-6 6.5-9.4-4.1-1.6-8.6-1.8-13-1.8-3.1 1.7-6.1 4.2-8.3 6.9z"/><path id="XMLID_157_" class="st9" d="M229.7 106.9c1-4.1.3-8.2.2-12.3-3.2 1.5-5.4 4.3-7.2 7.3-.2 2.9.6 5.8 1.4 8.5 1.9-1 4.2-1.8 5.6-3.5z"/><path id="XMLID_156_" class="st9" d="M217.5 115.1c2.5 1.1 4.3-4.5 1.6-4.9-1.4 1-2.5 3.2-1.6 4.9z"/><path id="XMLID_155_" class="st9" d="M225.2 116.5c5.5 1.2 10.9 2.6 16.4 4.1 2.5-2 5.3-3.6 7.1-6.3-5.3-1.3-10.8-2.8-16.4-3.4-2.8.9-5.7 2.8-7.1 5.6z"/><path id="XMLID_154_" class="st8" d="M211.5 127.2c8.2 1.4 18.5 1.7 24.8-4.4-6.2-.9-12.3-2.5-18.6-3-2.2 2.4-5.4 4.1-6.2 7.4z"/><path id="XMLID_153_" class="st7" d="M115.7 106.6c-1.3-2.8-3.8-4.7-6.8-5.6-.3 1.9-.3 3.8-.4 5.8 2.4 0 4.9-.1 7.2-.2z"/><path id="XMLID_152_" class="st7" d="M125.7 109.9c-.1-4.8-4.4-7.6-8.7-8.6 1.5 4 5.1 6.7 8.7 8.6z"/><path id="XMLID_151_" class="st7" d="M120.2 110.6c-3.4-2-7.5-1.5-11.4-1.1.7 1.1 1.3 2.4 1.7 3.6 3.4-.1 6.9.1 10.3.3-.1-.8-.5-2.2-.6-2.8z"/><path id="XMLID_150_" class="st7" d="M128 111.2c-1.2 4.4 2.8 7.9 5.3 10.9 1.2-4.1-.7-10.1-5.3-10.9z"/><path id="XMLID_149_" class="st7" d="M126.6 120.9c-.7-1.2-1.3-2.6-1.9-4.1-4 .1-8-.1-11.9 0 1.3 6.1 9.3 3.9 13.8 4.1z"/><path id="XMLID_148_" class="st8" d="M137.4 127.3c1.4-1.2-.1-4.9-2.1-3.6-1.2 1.2.1 4.6 2.1 3.6z"/><path id="XMLID_147_" class="st9" d="M130.4 126.1c-2.9-.9-5.8-.4-8.6-.3 3.9 4.6 10.1 6.7 15.4 8.9-2-3.1-4.1-6.1-6.8-8.6z"/><path id="XMLID_146_" class="st10" d="M155.1 133.6c-.9-2.9-.4-7-3.9-8.4-.5 2.7-.8 5.6-.5 8.5 1.1 0 3.3 0 4.4-.1z"/><path id="XMLID_145_" class="st11" d="M162.9 132.2c-1.5-1.9-3.1-3.8-5.4-4.5.2 2.6.7 5.2 1.7 7.6 1.4-.8 2.6-1.9 3.7-3.1z"/><path id="XMLID_144_" class="st12" d="M160.4 146c2.8-3.1 3.9-7.1 5.7-10.8-1.7.9-3.5 1.7-5 2.9-1.4 2.4-.7 5.3-.7 7.9z"/><path id="XMLID_143_" class="st8" d="M156.5 147.6c-.1-3 .4-6.4-1.1-9.2-1.5-1-3.1-1.4-4.8-2.1.4 4.2 2.1 9.1 5.9 11.3z"/><path id="XMLID_142_" class="st7" d="M285.7 108.1c-4.5.6-9.2 1.6-13.1 4.2-.2 2.1-.3 4.1-.5 6.2 4.3-3.6 10.3-5.8 13.6-10.4z"/><path id="XMLID_141_" class="st7" d="M286.8 118.7c1.3-2.6 2.4-5.3 3-8.1-4.1 1.9-7.6 5.1-11 8.1 2.6.1 5.2.1 8 0z"/><path id="XMLID_140_" class="st7" d="M257.2 121.7c-.3 3-.2 6.2-.3 9.2 4-2.8 6.8-6.8 10-10.4 1.8-1.5 1.3-3.8 1.2-5.9-4.3.7-8.7 3-10.9 7.1z"/><path id="XMLID_139_" class="st7" d="M279.6 128.2c2.4-1.5 3.5-4.1 4.6-6.5-3 0-6.3-.8-9.3 0-2.8 1.9-5.4 4-7.5 6.7 4.1.1 8.3 1 12.2-.2z"/><path id="XMLID_138_" class="st9" d="M253.9 126.6c-5 4.5-7.4 11.1-8.2 17.7 2.2-2.2 4.6-4.5 6.4-6.9 2.7-2.8 1.4-7.3 1.8-10.8z"/><path id="XMLID_137_" class="st9" d="M264.1 131.7c-2.8.9-4.2 3.6-6 5.7 6.3.8 14.7 1.2 17.8-5.8-4 .1-7.8-.3-11.8.1z"/><path id="XMLID_136_" class="st8" d="M249.6 147.5c4.7-.3 10.3-2 12.5-6.5-2.7-.2-5.5-.5-8.2-.9-1.8 2.2-3.2 4.8-4.3 7.4z"/><path id="XMLID_135_" class="st13" d="M301.3 139.4c1.9-1.1 2.4-3.4 3.4-5.3-3.8-.6-8.1.6-9.7 4.4 2.1.4 4.1 1 6.3.9z"/><path id="XMLID_134_" class="st7" d="M307.5 134.5c-.3 1.8-.5 3.4-.5 5.2 2.7-.1 5.5.1 8-1-1.9-2.3-4.6-3.6-7.5-4.2z"/><path id="XMLID_133_" class="st14" d="M292.2 135.4c-3.9 1.3-9.8 2-10.8 6.7 4.6.2 8.4-2.9 10.8-6.7z"/><path id="XMLID_132_" class="st8" d="M293.8 151.1c-1.2-2.6-2.9-4.7-5.3-6.4-2.9-.9-5.8-.6-8.6-.8 2.6 5.1 8.7 6.8 13.9 7.2z"/><path id="XMLID_131_" class="st15" d="M299.8 149.9c3.3 1.1 6.6-.3 9.5-1.6-1.1-1.5-1.9-3.5-3.5-4.4-3.6-.9-7.3-.4-10.8 0 1.1 2.3 2.2 4.9 4.8 6z"/><path id="XMLID_130_" class="st7" d="M310 144.2c1.6 3.5 6.1 2.3 8.4.3-2.8-.4-5.6-.4-8.4-.3z"/><path id="XMLID_527_" class="st2" d="M174 127.3c8.7 3.4 18.6 3.7 27.8 1.9 5.6.8 10.6 4.1 16.4 3.7 8-.4 16.2-2.4 23-6.8 7.9-6.2 15.6-13.6 19.4-23.2 3.8-8.9 9.2-17.3 12.2-26.4-13.4.1-27.6 2.5-39.1 10-4 2.3-6.4 6.6-10.7 8.5-1.1-16.2-3.9-33.1-13.7-46.6h-1.6c-3.3 2.8-6.1 6.2-7.8 10.2-4 9.3-7.4 18.8-9.2 28.8-.6 2.3-.5 4.9-2 6.8-3.3-6.8-6.6-14-13.2-18.3-6.2-6.1-14.7-7.8-22.9-9.4-.4 8.9-2.3 17.9-.4 26.9 1.2 14 10.5 26 21.8 33.9zm37.5-.1c.9-3.3 4.1-5 6.2-7.5 6.3.5 12.5 2.1 18.6 3-6.3 6.1-16.6 5.8-24.8 4.5zm39.9-15.9c-4.9-1.4-9.8-2.9-14.8-4.3 2.2-2.7 5.2-5.1 8.2-6.9 4.4.1 8.9.3 13 1.8-1.8 3.4-3.9 6.6-6.4 9.4zm3.2-30.1c3.2-.9 6.5-.9 9.8-1-3.9 3.5-7.8 7.2-12.5 9.6.7-2.9.4-6.5 2.7-8.6zm12.4 1.5c-1.6 5.3-4.1 10.2-7.1 14.9-3-.6-6-1.2-8.9-2.3 5.2-4.4 9.9-9.4 16-12.6zM235 89c3.8-3.5 8.9-5.2 14.1-5-1.3 3.5-2.4 7.4-4.4 10.6-3.2 3.2-6.8 5.9-10.6 8.3.3-4.5-.3-9.4.9-13.9zm13.7 25.3c-1.8 2.7-4.6 4.3-7.1 6.3-5.5-1.5-10.9-2.9-16.4-4.1 1.4-2.9 4.3-4.7 7.1-5.7 5.6.7 11.1 2.2 16.4 3.5zm-26-12.5c1.8-3 4.1-5.8 7.2-7.3.1 4.1.8 8.2-.2 12.3-1.4 1.8-3.7 2.5-5.7 3.5-.7-2.7-1.5-5.6-1.3-8.5zm-5.2 13.3c-.9-1.7.2-3.8 1.6-4.9 2.8.4.9 6-1.6 4.9zm-7.7-57.7c4.2 4.2 6 10.2 6.2 16-2.5 1.7-5.1 3.4-7.9 4.7.5-6.8.3-13.8 1.7-20.7zm-1.8 25c2.4-2.4 5.5-3.3 8.3-5 1.3 2.1 2.4 4.8 1.1 7.2-2.7 3.3-6 6.1-9.5 8.5 0-3.6-.5-7.2.1-10.7zm-.5 16.3c2.8-3.9 7.6-6.5 11.4-9.6-1.3 11.5-2.4 25.2-11.6 33.2-.3-7.8-.3-15.8.2-23.6zm-51.7-5c4.7-.6 10.8-.2 13.5 4.2 1.9 2.2 3.5 4.6 4.4 7.3-5.1-.4-10.1-1.3-15.2-2-1.4-3.1-2.2-6.2-2.7-9.5zm14.8 25.3c-4.8-2.4-7.9-7-10.8-11.3 6.3.6 12.5 1.3 18.6 1.8 1.1 2.1 2 4 2.1 6.3-3.3 1.1-6.5 2.8-9.9 3.2zm3.9 4.9c3.1-2.4 7.1-3.6 9.7-6.4 3.1 2.5 6.6 4.9 8.5 8.6-6.2.6-12.5 0-18.2-2.2zM205.7 57c-.2 5.6-.9 11.2-.7 16.7-7.4-2.6-4.1-13.1.7-16.7zm-7.1 16c3.6 4.4 7 10 5.5 16-3-1.7-5.4-4.1-8-6.3-.1-3.4-.2-7.1 2.5-9.7zm-5.3 14.5c4 1.7 6.1 5.6 8.8 8.6 1.3 5.2.5 10.7 1.1 15.9-3.2-3.2-5.2-7.2-7.9-10.8-3.4-3.8-1.7-9.2-2-13.7zm-8.7 9.2c2 1.3 2.8 3.6 3.9 5.7 3.1 6.4 6.3 12.6 8.1 19.5-5.7-3.8-10-9.2-14.6-14.1.7-3.7 1.6-7.4 2.6-11.1zm-9.5-16.6c2.7 2.5 5.7 5 6.7 8.6-.2 5.1-2.2 9.8-3.2 14.8-2.7-2.2-5.3-5-6-8.5.3-5.1.9-10.1 2.5-14.9zm-5-3.1c.8 4.3-.4 8.5-.7 12.8-4.4-6.1-8.9-12.6-12.1-19.5 4.6 1.2 9.7 2.8 12.8 6.7zm-14.1-.1c2.7 3.9 6.1 7.8 6.5 12.6-2.6-.6-6.2-.5-7.5-3.1-.4-3.2-.3-6.5 1-9.5z"/><path id="XMLID_518_" class="st2" d="M119.9 129.8c7.1 3.8 14 8.3 21.7 10.6-.6-12.4-3.2-25.4-12-34.9-5.8-6.4-15-7.8-23.2-8.2-2.7 12.3 2.7 25.7 13.5 32.5zm1.8-4c2.9-.1 5.8-.6 8.6.3 2.7 2.5 4.9 5.6 6.7 8.6-5.2-2.2-11.4-4.3-15.3-8.9zm13.5-2.1c2.1-1.3 3.5 2.4 2.1 3.6-1.9 1-3.2-2.4-2.1-3.6zm-7.2-12.5c4.7.8 6.5 6.8 5.3 10.9-2.5-3-6.5-6.5-5.3-10.9zm-2.3-1.3c-3.5-2-7.2-4.6-8.7-8.6 4.3 1 8.6 3.8 8.7 8.6zm-16.8-8.9c3 .9 5.4 2.8 6.8 5.6-2.3.1-4.8.2-7.1.2 0-1.9 0-3.8.3-5.8zm1.6 12c-.4-1.2-1.1-2.5-1.7-3.6 3.8-.4 8-.8 11.4 1.1.1.7.5 2.1.6 2.8-3.4-.2-6.8-.4-10.3-.3zm2.3 3.8c4-.1 8 .1 11.9 0 .5 1.5 1.2 2.9 1.9 4.1-4.5-.2-12.5 2-13.8-4.1z"/><path id="XMLID_502_" class="st2" d="M242.1 150.3c1 .2 2.9.5 4 .6 6 13.1 16.5 25.2 30.7 29.4 8.6 3.3 18.6 2.3 26.7-1.8-4.3-8.7-8.6-19.1-18.5-22.4-8.2-3.1-16.5-5.9-24.6-8.9 7.2-5.5 16.5-8.7 21.9-16.4 5.2-7.3 11.1-15.3 11.1-24.8-5.8-.1-11.5-.3-17.2.4-6.1 1.8-11.3 5.7-16.5 9.5-10.7 7.9-18.6 20.6-17.6 34.4zm3.5-6c.8-6.6 3.2-13.3 8.2-17.7-.3 3.6 1 8-1.8 10.8-1.8 2.4-4.1 4.7-6.4 6.9zm16 22.6c-4.2-2.4-6.5-7.1-7.9-11.5 2.7 1.3 5.3 2.7 7.5 4.9.9 2.1.3 4.4.4 6.6zm11.2 7.3c-2.5-.9-4.8-2.1-6.9-3.7 0-3 0-6 .1-9.2 2.3.7 4.6 1.7 6.8 2.7.1 3.5.2 6.8 0 10.2zm3.1 1.7c-.2-3-.3-6-.3-9.2 6.6-.4 8 6.6 10.3 11.3-3.4-.2-6.9-.7-10-2.1zm13.3 2c-.7-1.9-1.2-3.7-1.7-5.7 3.7 1 7.6 2.4 9.8 5.9-2.8.2-5.4 0-8.1-.2zm3.7-11.7c1.6 1.8 3.2 3.9 4.4 6.1-2.9-1.6-6.6-2.3-8.3-5.2 1.3-.2 2.7-.6 3.9-.9zm-3.6-3.4c-3.8 3.8-10.2 2-12.3-2.5 4.2-1.7 9.3-1.4 12.3 2.5zm-12.2-5.5c-3.2.5-6.5 2-9.8 1.2-4.2-2-8.6-4.1-12.5-6.9 7.6.5 16.4.6 22.3 5.7zm-27.5-9.8c1.1-2.6 2.6-5.2 4.2-7.5 2.7.5 5.5.8 8.2.9-2.1 4.6-7.8 6.3-12.4 6.6zm8.5-10.1c1.8-2 3.2-4.8 6-5.7 4-.4 7.8 0 11.8-.1-3.1 6.9-11.5 6.5-17.8 5.8zm31.7-26.7c-.6 2.7-1.7 5.5-3 8.1-2.7.1-5.4.1-8 0 3.4-3 6.9-6.3 11-8.1zm-17.2 1.6c3.9-2.5 8.6-3.6 13.1-4.2-3.4 4.6-9.3 6.7-13.6 10.4.2-2.1.3-4.1.5-6.2zm2.3 9.4c3-.8 6.3 0 9.3 0-1.1 2.5-2.3 5-4.6 6.5-4 1.2-8.1.3-12.2.2 2.1-2.7 4.8-4.8 7.5-6.7zm-7.9-1.2c-3.2 3.7-6 7.6-10 10.4 0-3 0-6.2.3-9.2 2.1-4.1 6.5-6.4 10.9-7.1.1 2 .6 4.4-1.2 5.9z"/><path id="XMLID_496_" class="st2" d="M160.1 156c2.7-7.1 6.2-13.9 9.2-21l-.4-1.1c-5.8-4.5-11.4-9.6-17.6-13.4-2.8 4.2-5.5 8.8-4.9 14.2-.5 9.2 5.9 17.2 13.7 21.3zm.3-10c0-2.6-.7-5.5.7-7.8 1.5-1.2 3.3-2 5-2.9-1.8 3.6-2.9 7.6-5.7 10.7zm2.5-13.8c-1.1 1.2-2.4 2.3-3.8 3.1-.9-2.3-1.4-5-1.7-7.6 2.4.7 4.1 2.6 5.5 4.5zm-6.4 15.4c-3.8-2.3-5.5-7.1-5.9-11.3 1.6.7 3.3 1.1 4.8 2.1 1.5 2.8 1 6.2 1.1 9.2zm-5.3-22.4c3.4 1.4 2.9 5.5 3.9 8.4-1.1.1-3.3.1-4.4.1-.2-2.9.1-5.8.5-8.5z"/><path id="XMLID_488_" class="st2" d="M270 147.3c2.3-.4 5.2-2 7.1.2 5.5 5 13.1 7.1 20.3 7.6 9.2-.8 18.8-2.9 25.7-9.6-3.5-6.2-8.3-12.6-16-14-13.9-2.8-28.5 4.8-37.1 15.8zm48.4-2.9c-2.2 2-6.8 3.2-8.4-.3 2.8 0 5.6 0 8.4.3zm-10.9-9.9c2.9.6 5.6 1.9 7.5 4.2-2.5 1.1-5.2.9-8 1 .1-1.7.2-3.4.5-5.2zm-2.8-.4c-1 1.9-1.4 4.2-3.4 5.3-2.2.1-4.2-.5-6.3-.9 1.6-3.9 5.8-5 9.7-4.4zm1.1 9.7c1.6 1 2.4 2.9 3.5 4.4-2.9 1.3-6.2 2.8-9.5 1.6-2.6-1.1-3.6-3.8-4.8-6.1 3.5-.2 7.2-.7 10.8.1zm-13.6-8.4c-2.4 3.8-6.1 6.9-10.8 6.7 1-4.7 6.9-5.4 10.8-6.7zm-3.6 9.3c2.3 1.7 4.1 3.8 5.3 6.4-5.2-.4-11.4-2.1-13.9-7.2 2.8.1 5.7-.1 8.6.8z"/><path id="XMLID_471_" class="st2" d="M123.5 188.1c-1.4 7.8-3.7 15.2-5.3 22.8 6.2-1.3 12.3-3.2 18.5-4.7 7.9-1.9 14.4-7.2 20.5-12.2 1.5-10.4-.1-21.5 3.1-31.9-1.9-.7-3.8-1.6-4.8-3.5-4.4-6.5-9.9-13.9-18.4-14.7-9-1-18.5-1.5-27.2 1.4-11 3.9-21.4 9.7-31.4 15.7 1.7 8.7 10.8 12.4 18.3 14.4 10.6.8 21-.2 31.4-1.3-2.1 4.5-3.9 9.1-4.7 14zm7.9-11.1c3-1.1 6.3-.2 9.3 0-1.1 2.2-2 4.5-3.8 6-3.2 1.2-6.5 1.5-9.8 2 1-2.7 2.3-5.7 4.3-8zm5.3-4.4c3.6-3.4 9.1-3.2 13.7-4.7-1.1 1.6-2.1 3.3-3.1 4.9-3.5-.3-7.1-.1-10.6-.2zm-9.3 15.9c1.6-.2 3.3-.4 4.8-.5-1.8 3.7-3.8 7.4-7.2 9.9.5-3.1.3-6.9 2.4-9.4zm-3.5 17.1c1.1-2 1.9-6.3 5.2-5 .1 1 .2 2.9.4 3.8-1.8.4-3.8.8-5.6 1.2zm8.6-2.8c-.4-2.5-1.3-5.1-1.1-7.6.9-2.5 2.5-4.2 4.6-5.7.6 3.6 1.4 7.2 1.9 10.7-.9 2.3-3.6 2.1-5.4 2.6zm10.4-4.5c-2-4.4-3.2-9.2-3.4-14 1.8-3 4.9-5.1 7.8-6.9 1.2 5.4 2.9 10.5 3.7 15.8-2.6 1.8-5.4 3.4-8.1 5.1zm11.7-16.3c-2-2.2-3.4-4.9-4.3-7.6.2-1.8 1.8-3 2.8-4.5 2.2 3.6 1.3 8.1 1.5 12.1zm-23.4-13.4c.6-2.9 1.5-5.5 3-7.9 5.5.4 11 0 16.5.4-5.8 4-12.6 6.4-19.5 7.5zm8.7-20.6c4.2 1.8 7.3 5.7 9.3 9.7-4.1-.1-8.1.2-12.1-.3-3.9-2.8-6.6-7-9.7-10.6 4.2.2 8.6-.2 12.5 1.2zm-19.5-.5c3.8 2.7 7 6.1 9.7 10-3.3 0-6.6-.1-9.9-.3-4.7.2-7.9-4-11.2-6.8 3.5-2 7.5-3 11.4-2.9zm-16.4 4.3c2.7.5 3.8 3.8 5.4 5.8-4.1.2-8.2.3-12.3-.3-.6-4 4.2-4.6 6.9-5.5zm-14.7 5.5c4.3-2 .2 4.5 0 0zm-.3 11.6c-1.9-1.1-3.1-3.1-4.2-5 2.2-.7 4.5-1.2 6.9-1.4-.6 2.1.3 6.4-2.7 6.4zm12.8 3.3c-2.8.4-7.3.8-8.2-2.7.3-2.5 2-4.6 3.9-6.1 2.9-1.5 6.2-.7 9.2-.7-1.4 3.2-3.2 6.3-4.9 9.5zm21.3-2.2c-5.4 2.3-11.2 2.7-16.9 2.5 2.4-4.4 6.2-7.7 9.1-11.8 4.9-.2 9.9-.1 14.8-.1-2 3.5-4.2 6.9-7 9.4z"/><path id="XMLID_56_" class="st9" d="M137.2 157.5c4 .5 8 .3 12.1.3-2-4-5.1-7.9-9.3-9.7-4-1.4-8.4-1.1-12.5-1.2 3 3.6 5.7 7.8 9.7 10.6z"/><path id="XMLID_55_" class="st7" d="M120.3 157.2c3.3.2 6.6.2 9.9.3-2.7-3.9-5.9-7.4-9.7-10-4-.1-8 1-11.3 3 3.2 2.8 6.4 6.9 11.1 6.7z"/><path id="XMLID_54_" class="st7" d="M109.4 157.6c-1.6-2.1-2.7-5.4-5.4-5.8-2.8.9-7.6 1.5-6.9 5.5 4.1.6 8.2.5 12.3.3z"/><path id="XMLID_53_" class="st7" d="M89.3 157.3c.2 4.5 4.3-2 0 0z"/><path id="XMLID_52_" class="st7" d="M115.3 160.7c-2.9 4.1-6.7 7.4-9.1 11.8 5.8.2 11.5-.2 16.9-2.5 2.8-2.6 5-6 7-9.4-4.9 0-9.9-.1-14.8.1z"/><path id="XMLID_51_" class="st8" d="M131.2 168.6c6.9-1.1 13.6-3.5 19.5-7.5-5.5-.4-11 0-16.5-.4-1.5 2.5-2.4 5.1-3 7.9z"/><path id="XMLID_50_" class="st7" d="M89 168.9c3-.1 2.1-4.4 2.7-6.4-2.3.2-4.7.8-6.9 1.4 1.1 2 2.3 3.9 4.2 5z"/><path id="XMLID_49_" class="st7" d="M97.6 163.3c-1.9 1.5-3.6 3.6-3.9 6.1.9 3.6 5.4 3.1 8.2 2.7 1.7-3.1 3.5-6.3 4.9-9.5-3.1 0-6.3-.7-9.2.7z"/><path id="XMLID_48_" class="st9" d="M267.4 158.5c3.3.7 6.6-.7 9.8-1.2-6-5-14.7-5.2-22.3-5.7 3.9 2.8 8.3 4.9 12.5 6.9z"/><path id="XMLID_47_" class="st8" d="M261.2 160.3c-2.2-2.2-4.7-3.6-7.5-4.9 1.4 4.4 3.7 9.1 7.9 11.5-.1-2.2.5-4.5-.4-6.6z"/><path id="XMLID_46_" class="st7" d="M289.3 162.8c-3-3.9-8-4.2-12.3-2.5 2.1 4.5 8.5 6.3 12.3 2.5z"/><path id="XMLID_45_" class="st12" d="M266 161.4c-.2 3.2-.1 6.2-.1 9.2 2.2 1.5 4.5 2.8 6.9 3.7.2-3.4.1-6.7 0-10.2-2.2-1-4.5-2-6.8-2.7z"/><path id="XMLID_44_" class="st7" d="M297.4 172.3c-1.2-2.2-2.8-4.3-4.4-6.1-1.2.4-2.6.8-3.9.9 1.7 2.9 5.4 3.6 8.3 5.2z"/><path id="XMLID_43_" class="st7" d="M275.6 166.7c0 3.2 0 6.2.3 9.2 3.1 1.4 6.6 1.9 10 2.1-2.3-4.7-3.7-11.7-10.3-11.3z"/><path id="XMLID_42_" class="st7" d="M287.5 172.2c.5 1.9 1 3.7 1.7 5.7 2.7.2 5.3.4 8.1.3-2.2-3.5-6.1-4.9-9.8-6z"/><path id="XMLID_41_" class="st13" d="M147.2 172.7c1-1.6 2-3.3 3.1-4.9-4.6 1.6-10 1.4-13.7 4.7 3.6.2 7.2 0 10.6.2z"/><path id="XMLID_40_" class="st8" d="M154.6 182c-.2-4 .7-8.5-1.5-12.1-1 1.5-2.6 2.7-2.8 4.5 1 2.8 2.3 5.4 4.3 7.6z"/><path id="XMLID_39_" class="st9" d="M140.7 177c-3-.2-6.3-1.1-9.3 0-2 2.3-3.2 5.3-4.2 8 3.3-.5 6.6-.9 9.8-2 1.7-1.5 2.6-3.8 3.7-6z"/><path id="XMLID_38_" class="st16" d="M139.5 184.3c.2 4.8 1.4 9.6 3.4 14 2.8-1.7 5.5-3.3 8.2-5.1-.9-5.4-2.6-10.5-3.7-15.8-3 1.7-6.1 3.9-7.9 6.9z"/><path id="XMLID_37_" class="st7" d="M132.2 188c-1.5.1-3.2.2-4.8.5-2.1 2.6-1.9 6.3-2.3 9.4 3.3-2.6 5.2-6.2 7.1-9.9z"/><path id="XMLID_36_" class="st7" d="M131.4 195.3c-.2 2.5.7 5.1 1.1 7.6 1.8-.5 4.5-.3 5.4-2.5-.5-3.6-1.3-7.2-1.9-10.7-2.1 1.3-3.8 3.1-4.6 5.6z"/><path id="XMLID_35_" class="st7" d="M123.9 205.6c1.8-.4 3.7-.8 5.5-1.2-.1-1-.2-2.9-.4-3.8-3.2-1.3-3.9 2.9-5.1 5z"/><path id="XMLID_34_" class="st17" d="M206.1 148c0-2.1.5-5.6.4-7.6-1.1.6-4.6 1.1-4.6 1.1s-1.9 48.5-2.2 83.9v3.1c0 .7 0 1.4-.1 2.2v.3c-.3 11.8-1.1 23.7-1 35.6 2.2-.1 4.3-.1 6.4-.1 1.3-47.1 0-71.1 1.1-118.5z"/><g id="XMLID_420_"><path id="XMLID_33_" class="st1" d="M235.2 155.2l-.2-2.8-22.9 15.4.1 5.6z"/><path id="XMLID_32_" class="st1" d="M166.6 165.3s.2.2.4.3c3.3 3.1 11.1 11.1 14 13.3.3.3.7.6 1.1.9 1.5 1.4 2.8 2.9 4.3 4.3 2.7 2.9 5.2 5.8 5.2 5.8l.2-7s-17.1-16.3-24.5-22.5c-.2 1.5-.7 4.9-.7 4.9z"/><path id="XMLID_31_" class="st1" d="M190.5 251.8c1-12.2 1.3-18.7 1.4-25.1-.3 8.3-.7 16.7-1.4 25.1z"/><path id="XMLID_30_" class="st1" d="M260.6 264.8c2.6-2.1 4.9-4.8 6.2-8.1-3.7 1.2-5.8 4.6-6.2 8.1z"/><g id="XMLID_422_"><path id="XMLID_29_" class="st1" d="M207.9 142.2v-.9.9z"/><path id="XMLID_28_" class="st1" d="M209.7 148.8c.1-6.2.1-9.9.1-9.9s-.2 3.7-.1 9.9z"/><path id="XMLID_27_" class="st1" d="M207.9 144.4c-.4 42.7-.6 61.3-.9 104.1.2-36.2.8-89.1.9-104.3v.2z"/><path id="XMLID_26_" class="st1" d="M166.6 165.3s.2.2.4.3c3.3 3.1 11.1 11.1 14 13.3.3.3.7.6 1.1.9 1.5 1.4 2.8 2.9 4.3 4.3 2.7 2.9 5.2 5.8 5.2 5.8l.2-7s-17.1-16.3-24.5-22.5c-.2 1.5-.7 4.9-.7 4.9z"/><path id="XMLID_25_" class="st1" d="M260.6 264.8c2.6-2.1 4.9-4.8 6.2-8.1-3.7 1.2-5.8 4.6-6.2 8.1z"/><path id="XMLID_24_" class="st1" d="M235.2 155.2l-.2-2.8-22.9 15.4.1 5.6z"/><g id="XMLID_423_"><path id="XMLID_23_" class="st1" d="M235.2 155.2l-.2-2.8-22.9 15.4.1 5.6z"/><path id="XMLID_22_" class="st1" d="M209.8 141.6v3.8c-.1-1.5-.1-2.8 0-3.8z"/><path id="XMLID_21_" class="st1" d="M166.6 165.3s.2.2.4.3c3.3 3.1 11.1 11.1 14 13.3.3.3.7.6 1.1.9 1.5 1.4 2.8 2.9 4.3 4.3 2.7 2.9 5.2 5.8 5.2 5.8l.2-7s-17.1-16.3-24.5-22.5c-.2 1.5-.7 4.9-.7 4.9z"/><path id="XMLID_20_" class="st1" d="M260.6 264.8c2.6-2.1 4.9-4.8 6.2-8.1-3.7 1.2-5.8 4.6-6.2 8.1z"/><g id="XMLID_424_"><path id="XMLID_19_" class="st1" d="M235.2 155.2l-.2-2.8-22.9 15.4.1 5.6z"/><path id="XMLID_18_" class="st1" d="M166.6 165.3s.2.2.4.3c3.3 3.1 11.1 11.1 14 13.3.3.3.7.6 1.1.9 1.5 1.4 2.8 2.9 4.3 4.3 2.7 2.9 5.2 5.8 5.2 5.8l.2-7s-17.1-16.3-24.5-22.5c-.2 1.5-.7 4.9-.7 4.9z"/><path id="XMLID_17_" class="st1" d="M260.6 264.8c2.6-2.1 4.9-4.8 6.2-8.1-3.7 1.2-5.8 4.6-6.2 8.1z"/><path id="XMLID_16_" class="st18" d="M213.3 266.3c-.4-13.7-3.7-27.2-4-40.8 0-33.4.5-47 .4-76.7v-3.4-3.8-2.8l-1.8 1v4.6l-.9 104v2.5c0 5.1-.4 10.2-.1 15.4h-.1v.2H213.4v-.2h-.1z"/><path id="XMLID_425_" class="st2" d="M262.2 254c.3-4 .2-8.1-.1-12.1-5 4.8-7.4 12-12.8 16.3-.1-8.3.5-16.7.6-25-5.3 6.2-7.4 14.7-12.5 21 1.1-17.5 2.6-34.9 4.3-52.2-.7.7-1.1 1.6-1.5 2.6-3.8 14.3-8.7 28.4-12.5 42.8-.4 1.1-.9 1.9-1.7 2.6.8-13.7 1.1-27.2 1.6-40.8h-1c-2.9 13.9-6.8 27.6-10.1 41.3-.3 1.4-.8 2.8-1.5 4.1-1.4-13.8-4.9-27.3-4-41.2.2-20.4.6-16.6.8-37 8-6.5 15.9-13.1 23.9-19.6 2.9-1.5 1.4-5.2.4-7.5-8.1 5.1-15.7 11-24 15.6.4-9.6-.9-19.1-.8-28.7-4.9 1.6-10.2 2.5-15.3 1-1.2 14.1-2.7 28.2-4.2 42.3-7.2-4.7-12.9-11.6-19.6-17-2.3-1.6-4-5.3-7.2-4.7-.2 2.5-.4 5.1-.7 7.7 8.5 9.2 17.4 17.9 26 27.1 1.7 1.5.8 3.9 1 5.9-.9 24.4-1 24.8-2.2 49.2h-.6c-1.1-6.6-3.6-12.8-5.2-19.2-1.5-4.4-2-9.1-4.2-13.4.3 11.5 1.6 22.8 1.7 34.3-5.8-6.5-9.3-14.9-15.4-21 1.3 8.5 2.9 16.9 4.2 25.4-7.3-7-13.2-15.4-20.6-22.3.5 6.7 1.7 13.3 3.3 19.9-3.7-2.4-5.3-6.6-9.1-9 .2 5.4 1.6 10.9 1.4 16.4-5.2-2.6-9.5-6.8-14.7-9.3 3.1 6.2 6.5 12.1 9.9 18.1 1.3.1 2.5.2 3.6.2h.3c-.2-.2-.4-.4-.6-.7-.1-.2-.3-.3-.4-.5-.1-.2-.3-.3-.4-.5-.1-.2-.3-.3-.4-.5v-.1c-.1-.2-.2-.3-.4-.5 0 0 0-.1-.1-.1-.1-.2-.2-.3-.4-.5l-.1-.1c-.1-.1-.2-.3-.3-.4l-.1-.1c-.1-.1-.2-.3-.3-.4 0-.1-.1-.1-.1-.2-.1-.1-.2-.3-.3-.4 0-.1-.1-.1-.1-.2-.1-.1-.2-.3-.3-.4 0-.1-.1-.2-.1-.2-.1-.1-.1-.2-.2-.4-.1-.1-.1-.2-.2-.3-.1-.1-.1-.2-.2-.3-.1-.1-.1-.2-.2-.4 0-.1-.1-.2-.1-.2l-.3-.6c3.2 1.9 6.4 4 9.6 6 .1-4.1-.4-8.2-.7-12.2 4.1 2.8 5.7 7.8 9.3 11.2-.7-8.2-2.5-16.3-3.4-24.5 1.1.6 2 1.5 2.7 2.5 6.4 8.1 12.4 16.3 18.6 24.6h.1c-.4-7.8-3-15.2-3-23.1 2 2.7 2.7 6.1 4.2 9 .1.2.1.3.2.5 0 0 0 .1.1.1 0 .1.1.2.1.3 0 .1 0 .1.1.2 0 .1.1.2.1.3 0 .1 0 .1.1.2 0 .1.1.2.1.3 0 0 0 .1.1.1 0 .1.1.2.1.3 0 0 0 .1.1.1.1.1.1.2.2.3v.1c.1.1.1.3.2.4.8 1.8 1.7 3.6 2.5 5.3.1.1.1.3.2.4.1.1.1.3.2.4.1.1.1.3.2.4.1.1.1.3.2.4.1.1.1.3.2.4.1.1.1.3.2.4.1.1.1.3.2.4.1.1.1.3.1.4 0 .1.1.3.1.4 0 .1.1.3.1.4 0 .1.1.3.1.4v.1h3.2c-1.5-8.3-1.3-16.7-1.1-25 .2.4.6 1.1.7 1.5 1 7.8 2.4 15.6 3.4 23.4.7 0 1.5-.1 2.3-.1-.4-3.8 0-7.6.3-11.3v-.5-.1-.4-.1-.4-.2-.3-.2-.3-.2-.4-.2-.5c.7-8.4 1.1-16.8 1.4-25.1.2-6.4.3-12.9.8-25.1.5-12.7 1.9-27.7 2.9-41.7.5-6.6 1.4-13 1.9-19l2 .3c-.1 31.1-1.7 43.3-2.1 74.4 0 1.1 0 2.2-.1 3.3v.5c-.3 15.7-.4 31.4-1.1 47.2.8 0 1.5 0 2.3-.1-.1-11.8.7-23.7 1-35.6v-.3c0-.7 0-1.4.1-2.2v-.5-2.6c.3-35.4 2.2-83.9 2.2-83.9s3.5-.5 4.6-1.1c.1 2.1-.4 5.6-.4 7.6-1.1 47.5.2 71.4-1.1 118.4H206.4c-.4-5.1 0-10.2.1-15.4v-.1-1-.2-1.2l.9-104.1v-.3-1.9-.9-1.5l1.8-1v10c.1 29.8-.4 43.3-.4 76.7.3 13.7 3.5 27.2 4 40.8h3.2c-.2-5.1 1.6-10.1 3-15.1v-.1c.1-.2.1-.4.2-.5v-.2c0-.2.1-.3.1-.5 0-.1 0-.1.1-.2 0-.1.1-.3.1-.4 0-.1 0-.2.1-.2 0-.1.1-.3.1-.4 0-.1 0-.2.1-.2 0-.1.1-.3.1-.4v-.2c0-.2.1-.4.1-.6 1-2.6.5-6.4 2.8-8.3.2 8.1 1.1 16.2 1.2 24.3 2.5-2 2.3-5.7 3.4-8.4 3-9.3 5.4-18.7 8.7-27.8v7.1c0 .2 0 .5-.1.7v.6c0 .2 0 .5-.1.7v.6c0 .2 0 .5-.1.7 0 .2 0 .4-.1.6 0 .2 0 .5-.1.7 0 .2 0 .4-.1.6 0 .2 0 .5-.1.7 0 .2 0 .4-.1.6 0 .2 0 .5-.1.7 0 .2 0 .4-.1.5 0 .3-.1.5-.1.8 0 .2 0 .4-.1.5 0 .3-.1.5-.1.8 0 .2 0 .3-.1.5 0 .3-.1.5-.1.8 0 .2 0 .3-.1.5 0 .3-.1.6-.1.9v.4c0 .3-.1.6-.1.9v.3c0 .3-.1.7-.1 1v.2c0 .4-.1.8-.1 1.2-.6 5.4-1.3 10.7-1.9 16.1 1 .1 2.1.1 3.1.2h.4c.1-.1.1-.2.2-.3 0-.1.1-.1.1-.2.2-.4.4-.7.6-1.1 0-.1.1-.1.1-.2l.6-1.2v-.1c.9-1.9 1.8-3.8 2.7-5.6 0-.1.1-.1.1-.2.2-.3.3-.7.5-1 .1-.1.1-.3.2-.4.1-.3.3-.6.4-.9.1-.2.2-.3.2-.5.1-.3.3-.5.4-.8.1-.2.2-.3.3-.5.1-.3.3-.5.4-.8.1-.2.2-.3.3-.5.1-.3.3-.5.4-.8.1-.2.2-.3.3-.5.1-.3.3-.5.4-.8.1-.2.2-.3.3-.5.2-.3.3-.6.5-.9.1-.1.2-.3.2-.4.2-.4.5-.8.8-1.3V250.8c0 1 .1 2 .1 3V265.7c0 .2 0 .4-.1.6v.5l3.6.3c2.8-5.2 5.8-10.5 9.6-15.2-.6 5.1-1.7 10-1.8 15.1-.8.3-1.5.6-2.3.7 2 .2 3.9.5 5.8.8 4.9-7 9.9-14 14.5-21.2-4.5 2.2-8 5.8-12.9 6.7zM235 152.4l.2 2.8-23 18.2-.1-5.6 22.9-15.4zm-43.5 37.5s-2.5-2.8-5.2-5.8c-1.5-1.4-2.8-2.9-4.3-4.3-.4-.4-.8-.7-1.1-.9-2.9-2.2-10.7-10.2-14-13.3-.1-.1-.4-.3-.4-.3s.5-3.3.6-4.8c7.4 6.2 24.5 22.5 24.5 22.5l-.1 6.9zm69.1 74.9c.4-3.5 2.5-7 6.2-8.1-1.3 3.4-3.6 6-6.2 8.1z"/></g></g></g><path id="XMLID_11_" class="st5" d="M197.4 215.6c.5-31.1 2-43.3 2.1-74.4l-2-.3c-.5 6-1.4 12.4-1.9 19-1.1 14-2.4 29-2.9 41.7-.6 12.2-.7 18.6-.8 25.1-.2 6.5-.5 12.9-1.4 25.1V255.6c-.3 3.8-.7 7.6-.3 11.3h.1c2.1-.1 4.2-.2 6.1-.2h.1c.7-15.7.8-31.4 1.1-47.2v-.5c-.2-1.2-.2-2.3-.2-3.4z"/></g><path id="XMLID_10_" class="st6" d="M234.5 250.7c0-.4.1-.8.1-1.2v-.2c0-.3.1-.7.1-1v-.3c0-.3.1-.6.1-.9v-.4c0-.3.1-.6.1-.9 0-.2 0-.3.1-.5 0-.3.1-.5.1-.8 0-.2 0-.3.1-.5 0-.3.1-.5.1-.8 0-.2 0-.4.1-.5 0-.3.1-.5.1-.8 0-.2 0-.4.1-.5 0-.2 0-.5.1-.7 0-.2 0-.4.1-.6 0-.2 0-.5.1-.7 0-.2 0-.4.1-.6 0-.2 0-.5.1-.7 0-.2 0-.4.1-.6 0-.2 0-.5.1-.7v-.6c0-.2 0-.5.1-.7v-.6c0-.2 0-.5.1-.7v-.6-.7-.6-.7-.6-.8-.5-.9-.4-1.3c-3.3 9.1-5.6 18.5-8.7 27.8-1.1 2.8-.9 6.4-3.4 8.4-.1-8.1-1-16.2-1.2-24.3-2.3 1.9-1.8 5.7-2.8 8.3 0 .2-.1.4-.1.6v.2c0 .1-.1.3-.1.4 0 .1 0 .2-.1.2 0 .1-.1.3-.1.4 0 .1 0 .2-.1.2 0 .1-.1.3-.1.4 0 .1 0 .1-.1.2 0 .2-.1.3-.1.5v.2c0 .2-.1.4-.2.5v.1c-1.4 5-3.3 10-3 15.1h3.4c4.3.1 8.5.2 12.7.4.7-5.2 1.4-10.6 2-16z"/><path id="XMLID_9_" class="st6" d="M153 240.1c.8 8.2 2.7 16.3 3.4 24.5-3.6-3.3-5.2-8.3-9.3-11.2.3 4 .7 8.1.7 12.2-3.2-2-6.4-4.1-9.6-6l.3.6c0 .1.1.2.1.2.1.1.1.2.2.4.1.1.1.2.2.3.1.1.1.2.2.3.1.1.1.2.2.4 0 .1.1.2.1.2.1.1.2.3.3.4 0 .1.1.1.1.2.1.1.2.3.3.4 0 .1.1.1.1.2.1.1.2.3.3.4l.1.1c.1.2.2.3.3.4l.1.1c.1.2.2.3.4.5 0 0 0 .1.1.1.1.2.2.3.4.5v.1c.1.2.3.3.4.5.1.2.3.3.4.5.1.2.3.3.4.5.2.2.4.4.6.7h.8c2.7 0 4.5-.2 4.5-.2h.2l24.9-.3c-6.1-8.3-12.2-16.6-18.6-24.6-.5-.9-1.5-1.8-2.6-2.4z"/><path id="XMLID_8_" class="st6" d="M181.5 267c0-.1-.1-.3-.1-.4 0-.1-.1-.3-.1-.4 0-.1-.1-.3-.1-.4 0-.1-.1-.3-.1-.4-.1-.1-.1-.3-.2-.4-.1-.1-.1-.3-.2-.4-.1-.1-.1-.3-.2-.4-.1-.1-.1-.3-.2-.4-.1-.1-.1-.3-.2-.4-.1-.1-.1-.3-.2-.4-.1-.1-.1-.3-.2-.4-.8-1.8-1.7-3.6-2.5-5.3-.1-.1-.1-.3-.2-.4v-.1c-.1-.1-.1-.2-.2-.3 0 0 0-.1-.1-.1 0-.1-.1-.2-.1-.3 0 0 0-.1-.1-.1 0-.1-.1-.2-.1-.3 0-.1 0-.1-.1-.2 0-.1-.1-.2-.1-.3 0-.1 0-.1-.1-.2 0-.1-.1-.2-.1-.3 0 0 0-.1-.1-.1-.1-.2-.1-.3-.2-.5-1.5-2.9-2.2-6.3-4.2-9 0 7.8 2.7 15.2 3 23.1l7.2-.1c-.2-1-.2-1.1-.2-1.1z"/><path id="XMLID_7_" class="st6" d="M183.6 242c-.1 8.4-.4 16.8 1.1 25 1-.1 2-.1 3-.2-1-7.8-2.4-15.6-3.4-23.4-.1-.3-.4-1-.7-1.4z"/><path id="XMLID_6_" class="st6" d="M246 267.3c0-.2 0-.4.1-.6v-.1-.6-.1-.5-.1-.5-.1-.5-.1-.5-.1-.5-.2-.5-.2-.5-.2-.5-.2-.5-.2-.5-.2-.5-.2-.5-.2-.5-.2-.5-.1-.5-.1-.5-.1-.6c0-1-.1-2-.1-3v-.2-.4-.2-.4-.3-.4-.3-.4-.3-.4-.2-.7c-.3.4-.5.8-.8 1.3-.1.1-.2.3-.2.4-.2.3-.3.6-.5.9-.1.2-.2.3-.3.5-.1.3-.3.5-.4.8-.1.2-.2.3-.3.5-.1.3-.3.5-.4.8-.1.2-.2.3-.3.5-.1.3-.3.5-.4.8-.1.2-.2.3-.3.5-.1.3-.3.5-.4.8-.1.2-.2.3-.2.5-.1.3-.3.6-.4.9-.1.1-.1.3-.2.4-.2.3-.3.7-.5 1 0 .1-.1.1-.1.2-.9 1.9-1.8 3.8-2.7 5.6v.1l-.6 1.2c0 .1-.1.1-.1.2-.2.4-.4.7-.6 1.1 0 .1-.1.1-.1.2-.1.1-.1.2-.2.3 3.3.2 6.6.5 9.8.7.2-.2.2-.3.2-.5z"/><path id="XMLID_5_" class="st6" d="M259.2 253c-3.8 4.6-6.8 9.9-9.6 15.2 1.8.2 3.7.4 5.5.6.8-.1 1.6-.3 2.3-.7.1-5.1 1.2-10.1 1.8-15.1z"/></g><g id="XMLID_410_"><path id="XMLID_4_" class="st1" d="M123.4 238.6c-5.2 5.6-5 11.9-5 12 .3 6.4 3.2 10.9 8.9 13.7 4 2 8.7 2.9 12.7 3.2 1.3.1 2.5.2 3.6.2h1.1c2.7 0 4.5-.2 4.5-.2h.2l24.9-.3h.1l5.8-.1c-17.4-5.3-33.1-15.5-45.6-28.6-.8-.8-1.5-1.6-2.3-2.5-.7-.8-1.5-1.7-2.2-2.5-2.6 1.4-4.9 3.1-6.7 5.1z"/><path id="XMLID_402_" class="st3" d="M197.4 270.6c3 .3 6 .5 9.1.5 3.9 0 7.8-.2 11.5-.7-6.6-.1-13.4 0-20.6.2z"/></g><path id="XMLID_3_" class="st19" d="M233.2 291c-19.4-6.2-43.1-9.1-65.7-9.5-3.4-.1-6.8 0-9.9.1h-.1c-.9 0-1.8.1-2.7.1-.7 0-1.3.1-1.9.1h-.2c-1.4 0-2.8.1-4.1.2-1.9.1-3.8.1-5.7.1h-5c-.2 0-.4 0-.6-.1h-.2c-.2 0-.4 0-.6-.1h-.2c-.2 0-.4 0-.6-.1h-.2c-.2 0-.4-.1-.6-.1h-.1c-.2 0-.4-.1-.6-.1-2.3-.4-4.5-.9-6.6-1.5-.2-.1-.4-.1-.6-.2-.2-.1-.4-.1-.6-.2-.2-.1-.4-.1-.6-.2-.2-.1-.4-.1-.5-.2-.2-.1-.4-.1-.5-.2h-.1c-5.4-2.1-9.7-5.3-12.9-9.4l-.2-.3v-.1-.1c-.1-.1-.2-.2-.2-.3v-.1c-.1-.1-.1-.2-.2-.3-.1-.1-.1-.2-.2-.3-.1-.1-.1-.2-.2-.3 0 0 0-.1-.1-.1-.1-.1-.1-.2-.2-.3v-.1c-.1-.1-.1-.2-.2-.3-.1-.1-.1-.2-.2-.3-.1-.1-.1-.2-.2-.3-.3-.5-.6-1.1-.9-1.6l-.1-.2-.1-.1c0-.1-.1-.1-.1-.2l-.2-.4v-.1l-.2-.4-.1-.3s-.1-.3-.1-.4l-.2-.5c0-.1-.1-.3-.1-.3 0-.1-.1-.3-.1-.3 0-.1-.1-.2-.1-.3 0-.1-.1-.2-.1-.3v-.1c-1.5-4.6-1.4-8.1-1.4-8.5 0-.5.1-1 .1-1.5v-.1c0-.2 0-.4.1-.6v-.1c0-.2.1-.4.1-.6v-.2c0-.2.1-.4.1-.5v-.2c0-.2.1-.4.1-.5v-.2c0-.2.1-.4.1-.5v-.1c0-.2.1-.4.1-.6v-.1c.2-.7.4-1.3.6-2v-.1c.1-.2.1-.4.2-.5v-.1c.1-.2.1-.3.2-.5 0-.1 0-.1.1-.2s.1-.3.2-.4l.1-.2c.1-.2.1-.3.2-.5l.1-.1c.1-.2.1-.3.2-.5l.1-.1c.1-.2.1-.3.2-.5l.1-.1c.1-.2.2-.3.3-.5v-.1c.3-.6.6-1.1.9-1.7l.1-.1c.1-.1.2-.3.3-.4l.1-.1c.1-.1.2-.3.3-.4l.1-.1c.1-.1.2-.3.3-.4l.1-.1c.1-.1.2-.3.3-.4 0-.1.1-.1.1-.1.1-.1.2-.2.3-.4l.1-.1c.1-.1.2-.3.3-.4v-.1c.4-.5.8-1 1.2-1.4.1-.1.2-.3.4-.4l.1-.1c.1-.1.2-.2.3-.4l.1-.1.3-.3.1-.1.3-.3.1-.1.3-.3.1-.1.3-.3.1-.1c.1-.1.3-.2.4-.4.4-.4.9-.8 1.4-1.1.1-.1.3-.2.4-.3l.1-.1c.1-.1.2-.2.4-.3l.1-.1c.1-.1.2-.2.4-.3l.1-.1c.1-.1.2-.2.3-.2l.1-.1c.1-.1.2-.2.4-.2l.1-.1c.1-.1.3-.2.4-.3h.1l1.5-.9c.2-.1.3-.2.5-.3h.1c.1-.1.3-.2.4-.2l.1-.1c.1-.1.2-.1.4-.2-.6-.8-1.2-1.7-1.7-2.5-5.9 2.9-10.7 6.8-14.3 11.5-6.3 8.2-6.8 16.3-6.8 17.3-.5 8.5 2 15.8 7.3 21.5 11.9 12.8 34.3 13.9 38.7 14H148.1c2.5-.1 4.9-.2 7.4-.3 3.9-.1 7.7-.2 11.4-.1 13.9.3 25.8 2.1 35.3 5.4 9.3 3.2 13.6 7.5 16.4 9.7 3.2 2.6 8.2 10.1 13.6 19.5 11.4-2.1 22.4-5.4 32.8-9.8-11.4-9.9-21.8-17.7-28.2-19.4l-3.6-2z"/><path id="XMLID_405_" class="st3" d="M197.4 270.6c-4.1.1-8.3.3-12.7.5l-35 .4s-34.2 3.9-35.3-20.8c0 0-.8-12.9 13.2-20.5-.5-.7-1-1.3-1.5-2-.1.1-.2.1-.3.2 0 0-.1 0-.1.1-.1.1-.2.1-.3.2 0 0-.1 0-.1.1-.1.1-.2.1-.4.2h-.1c-.1.1-.3.2-.4.2-.5.3-.9.5-1.4.8h-.1c-.1.1-.2.2-.4.2 0 0-.1 0-.1.1-.1.1-.2.1-.3.2l-.1.1c-.1.1-.2.1-.3.2l-.1.1c-.1.1-.2.2-.3.2l-.1.1c-.1.1-.2.2-.3.2 0 0-.1 0-.1.1-.1.1-.2.2-.4.3h-.1c-.4.3-.8.7-1.3 1-.1.1-.2.2-.4.3 0 0-.1 0-.1.1l-.3.3-.1.1-.3.3-.1.1-.3.3-.1.1-.3.3-.1.1-.3.3s0 .1-.1.1c-.1.1-.2.2-.3.4-.4.4-.7.8-1.1 1.3l-.1.1c-.1.1-.2.2-.3.4l-.1.1c-.1.1-.2.2-.2.3l-.1.1c-.1.1-.2.2-.2.3l-.1.1c-.1.1-.2.2-.2.3l-.1.1c-.1.1-.2.2-.2.4 0 0 0 .1-.1.1-.1.1-.2.3-.2.4v.1c-.3.5-.6 1-.8 1.5-.1.2-.2.3-.2.5v.1c-.1.1-.1.3-.2.4 0 0 0 .1-.1.1-.1.1-.1.3-.2.4 0 0 0 .1-.1.1-.1.1-.1.3-.2.4 0 0 0 .1-.1.1-.1.1-.1.3-.2.4 0 0 0 .1-.1.1-.1.1-.1.3-.2.4v.1c-.1.2-.1.3-.2.5v.1c-.2.6-.4 1.2-.5 1.8v.1c0 .2-.1.4-.1.5v.1c0 .2-.1.3-.1.5v.1c0 .2-.1.3-.1.5v.2c0 .2-.1.3-.1.5v.2c0 .2-.1.3-.1.5v.1c0 .2 0 .4-.1.6v.1c0 .4-.1.9-.1 1.4 0 0-.1 3.2 1.2 7.4 0 .1.1.2.1.3 0 .1.1.2.1.2v.1c0 .1.1.1.1.2v.1c0 .1.1.1.1.2v.1c0 .1.1.1.1.2v.1c0 .1 0 .1.1.2 0 0 0 .1.1.1 0 .1 0 .1.1.2 0 0 0 .1.1.1 0 .1 0 .1.1.2 0 0 0 .1.1.1 0 0 0 .1.1.1 0 .1 0 .1.1.2 0 0 0 .1.1.1 0 .1.1.1.1.2v.1c0 .1.1.1.1.2.2.5.5 1 .8 1.5.1.1.1.2.2.3.1.1.1.2.2.3.1.1.1.2.2.3.1.1.1.2.2.3.1.1.1.2.2.3.1.1.1.2.2.3.1.1.1.2.2.3.1.1.1.2.2.3.1.1.1.2.2.3 2.5 3.2 6.2 6.3 11.7 8.5.2.1.3.1.5.2s.3.1.5.2.3.1.5.2.3.1.5.2.4.1.5.2c1.9.6 3.9 1 6.2 1.4.2 0 .4.1.6.1h.1c.2 0 .4.1.6.1h.2c.2 0 .4 0 .5.1h.2c.2 0 .4 0 .5.1h.2c.2 0 .4 0 .5.1h3.8c1.9.1 4 0 6.1-.1 1.4-.1 2.8-.1 4.2-.2.6 0 1.2-.1 1.9-.1 1 0 1.9-.1 2.9-.1 24.6-.9 57.4 4.4 80.1 11 9.5 2.8 20.9 10.9 31.9 20.5 13.9-6.3 26.7-14.6 38.2-24.4-22.6-8.6-50.9-14.4-89.7-15-6.6.3-13.4.4-20.6.6z"/></g></g></svg>