<svg version="1.1" xmlns="http://www.w3.org/2000/svg" xmlns:xlink="http://www.w3.org/1999/xlink" viewBox="0 0 451.8 505.8" xml:space="preserve">
<style type="text/css">
	.st0{fill:#757575;}
	.st1{fill:#FFFFFF;}
</style>
<path class="st0" d="M90.8,17.7c13.5,8.8,29,26.8,39.6,26.9c13.5,0.2,17.9-31,29.3-38.1c8.1-5,31.6,3.8,36,12.2
	c6.8,13.1-7.3,37.7,4.3,46.8c10.9,8.5,32-5.3,45.7-3.6c10,1.3,24.5,24,22.2,33.8c-2.9,12.2-31.5,26-29.7,38.4
	c1.8,12.4,28.6,14.3,33.8,25.6c4.4,9.7-3,35.6-12.2,41c-9.5,5.5-37.1-8.7-43.9,0c-7.7,9.8,9.5,38,5,49.6
	c-3.5,9.1-24.3,21.8-33.8,19.4c-12-3-23.1-36.5-35.3-34.5c-12,1.9-21.4,36.7-29.5,38.8c-9.3,2.5-30.3-3.4-35.6-11.5
	c-5.6-8.6,0.6-38.7-8.3-43.9c-15.8-9.4-31.9,6.4-43.2,3.6c-10.5-2.6-22.6-18.1-21.4-28.8c1.3-11.5,31.1-30,30-40.2
	C42.6,141.3,9,130,5,118.7c-3.7-10.6,2.1-27.4,12.2-32.4c10.5-5.1,42.5,2,47.5-8.6c5.1-10.9-8.1-33.7-5-45.3
	C62.7,21.2,81.1,11.4,90.8,17.7z"/>
<circle class="st1" cx="138.6" cy="139.8" r="43.7"/>
<path class="st0" d="M309.8,181.5c9.9,4.1,22.2,13.8,29.1,12.6c8.8-1.5,7.8-22.4,14.4-28.4c4.6-4.3,21-1.4,24.9,3.5
	c6.1,7.7-0.1,25.4,8.6,29.9c8.1,4.2,20.2-7.4,29.3-8c6.7-0.4,18.9,12.6,18.6,19.3c-0.4,8.3-17.3,20.8-14.6,28.7
	c2.7,7.8,20.4,5.7,25.2,12.5c4.1,5.8,2.5,23.6-2.9,28.2c-5.5,4.8-25.2-1-28.6,5.4c-3.8,7.3,10.9,23.5,9.4,31.7
	c-1.2,6.3-13.1,17.2-19.6,16.8c-8.2-0.4-19.5-20.9-27.2-18.1c-7.6,2.7-9.4,26.5-14.4,28.9c-5.8,2.8-20.1,1.5-24.6-3.1
	c-4.7-4.9-4.4-25.2-10.8-27.5c-11.5-4.1-20,8.1-27.6,7.7c-7.2-0.4-16.9-9-17.5-16.1c-0.6-7.6,16.5-23.4,14.5-29.9
	c-2.3-7.6-25.6-10.8-29.6-17.7c-3.7-6.5-2-18.1,3.9-22.6c6.2-4.6,27.9-4,29.8-11.5c2-7.7-9.5-20.9-8.9-28.9
	C291.9,187.3,302.7,178.6,309.8,181.5z"/>
<ellipse transform="matrix(0.9823 -0.1871 0.1871 0.9823 -41.4267 71.0909)" class="st1" cx="356" cy="255.1" rx="28.9" ry="28.9"/>
<path class="st0" d="M88.8,320.3c13.7,0.1,33,6,40.7,1.3c9.8-6-1.3-30.4,3.6-40.8c3.5-7.3,24.4-11.7,31.4-7.7
	c10.9,6.3,12,30.4,24.5,31.6c11.7,1.1,20.6-18.5,31.2-23.5c7.8-3.7,28.5,6,31.4,14.2c3.5,10.1-10.8,33.1-3.8,41.2
	c6.9,8.1,27.1-2.8,36,3c7.6,5,14.2,27,10,35.1c-4.3,8.3-30.6,10.8-31.5,20.1c-1,10.6,24.2,22.9,26.3,33.4
	c1.6,8.1-7.5,26.8-15.4,29.4c-10,3.3-33.3-15.7-41.1-8.7c-7.8,6.9,1.4,36.2-3.4,41.4c-5.6,6.1-23.4,11.4-30.9,8
	c-8-3.6-17.3-28-26-27.8c-15.7,0.5-20,19.2-29.4,22.3c-8.7,3-24.5-2.7-28.6-11c-4.4-8.8,8.6-35.8,3.2-42.6c-6.4-8-35.7-0.7-43.7-7
	c-7.5-6-11-20.7-6-28.9c5.2-8.5,31.5-18,30.2-27.9c-1.3-10.1-21.3-20.5-24.3-30.3C70.2,335.7,78.9,320.2,88.8,320.3z"/>
<ellipse transform="matrix(0.8436 -0.5369 0.5369 0.8436 -179.4085 156.4849)" class="st1" cx="179" cy="386.3" rx="37.2" ry="37.2"/>
</svg>
