<svg xmlns="http://www.w3.org/2000/svg" xmlns:xlink="http://www.w3.org/1999/xlink" viewBox="0 0 1520.5 1520.5"><defs><path id="a" d="M79.9 940.1h1427.6v469.8H79.9z"/></defs><clipPath id="b"><use xlink:href="#a" overflow="visible"/></clipPath><path clip-path="url(#b)" fill="#61BBEA" d="M368.1 954.8s-239.8-9.3-257.3 168.1c0 0-12.2 168.1 227 165 241.5-3.1 650.8 13.6 674.5 120.3l495.1 1.7s-333.2-169-954.9-158.5l-206.9-5.2s-202.6 15.4-204.8-130.9c0 0-4.5-148.3 225.9-144.6l1.4-15.9z"/><path clip-path="url(#b)" fill="#BCDDF4" d="M368 940.1c-279.5 0-287.4 180.7-287.4 180.7-16.8 191.1 250.5 199.5 250.5 199.5 15.2-.1 29.8-.2 44-.2 512.3 0 322.7 89.8 322.7 89.8 97.3 0 314.5-1.7 314.5-1.7-4.5-14.3-14.5-27-29-38.2-93.2-66.7-383.5-82.4-592.3-82.4h-17.2c-26.9.6-42.8 1.4-42.8 1.4-10.1-.4-19.8-1-29.1-1.9-201.8-13.3-191.2-163.7-191.2-164.1C126.5 962.4 324.6 954.8 362 954.8c3.9 0 6 .1 6 .1v-14.8z"/><path clip-path="url(#b)" fill="#61BBEA" d="M362.1 954.7c-37.3 0-235.5 7.6-251.3 168.1 21.4-161 218.1-168.1 252.2-168.1 3.3 0 5.1.1 5.1.1s-2.1-.1-6-.1m-251.3 168.2c0 .5-10.6 150.9 191.2 164.1-201.1-19.9-191.2-163.7-191.2-164.1m343.3 163.8c-31.9 0-59.4.4-80.2.9h17.2c208.8 0 499.2 15.7 592.3 82.4-92.9-72.1-367.5-83.3-529.3-83.3"/><g><defs><path id="c" d="M18.1 20.7h1126.6v974.8H18.1z"/></defs><clipPath id="d"><use xlink:href="#c" overflow="visible"/></clipPath><path clip-path="url(#d)" fill="#A3CD41" d="M153.7 165.5s279.5 485.9 253.7 830h103.2c.1 0-77.3-455.9-356.9-830M76.8 27.5s-206 557.3 153.5 722.9c0-.1-278.7-198-153.5-722.9M149.4 21.8s242.7 161.8 283.2 234.7c0 0 360.1-218.5 619-101.1 0 0-198.2-93.1-594.8 149.7 0 0 141.6 226.6 0 372.2 0 0 493.6-16.2 687.8-509.8 0 0-279.2-307.5-809.2-32.4.2 0-113.1-81-186-113.3"/></g><g fill="#A2CD41"><path d="M798.1 953.3c-10.7 15.3-25 27.4-43.2 36.1-18.1 8.7-37.7 13.1-58.7 13.1-39 0-71.5-13.3-97.5-40s-38.9-59.6-38.9-98.8c0-39.8 13.3-73.1 39.8-99.9 26.5-26.8 59.7-40.2 99.6-40.2 20.5 0 39.3 4.2 56.4 12.5s31.3 20.3 42.6 35.9v-42.5h33.2v266.1h-33.2v-42.3zm0-92.7c0-28.2-10.1-52.9-30.3-73.9-20.2-21-43.4-31.6-69.7-31.6-28.6 0-52.9 10.5-73 31.6-20.1 21-30.1 47.1-30.1 78.3 0 29.7 10 54.7 30 75.1 20 20.4 44.1 30.6 72.2 30.6 27.1 0 50.7-10.8 70.8-32.3 20-21.5 30.1-47.5 30.1-77.8zM975.9 995.5h-34.7V729.4h32.3v30.8c8.3-11.8 17.4-20.5 27.3-26 9.9-5.5 21.4-8.4 34.6-8.7l.2 37.2c-21.4 1.9-36.6 8.3-45.9 19.2-9.2 10.9-13.8 28.6-13.8 53.1v160.5zM1156.7 995.5h-34.2V643.2h34.2v209.6l96.1-123.4h39.2l-96.5 123.4 117.4 142.7h-43.1l-113-138.6v138.6z"/></g><g fill="#6EB5E4"><path d="M249.7 1090.3c-4.4-6.1-9.4-10.7-14.8-13.5-5.5-2.9-11.7-4.3-18.7-4.3-11 0-20.4 4.1-28.1 12.2-7.8 8.1-11.7 17.8-11.7 29 0 11.9 3.9 22 11.6 30.1 7.7 8.2 17.1 12.3 28.2 12.3 6.8 0 13-1.4 18.5-4.3 5.5-2.8 10.3-7.1 14.4-12.7h11.5c-4.5 8.4-10.6 14.9-18.2 19.5s-16.1 6.9-25.5 6.9c-14.5 0-26.6-4.9-36.3-14.8-9.7-9.9-14.5-22.2-14.5-37.1 0-6.9 1.3-13.5 3.9-19.6 2.6-6.2 6.5-11.8 11.5-16.7 4.7-4.7 10-8.3 15.8-10.7 5.8-2.4 12.2-3.6 19-3.6 9.8 0 18.6 2.4 26.5 7.2 7.8 4.8 14 11.6 18.6 20.3h-11.7zM269.8 1126.2c0-10.9 3.7-20.3 11.2-28 7.5-7.8 16.4-11.7 26.6-11.7 10.8 0 20 3.8 27.6 11.4 7.6 7.6 11.4 16.7 11.4 27.3 0 11.1-3.7 20.6-11.2 28.5-7.5 7.9-16.5 11.8-27.1 11.8-10.8 0-19.9-3.8-27.4-11.5-7.3-7.8-11.1-17-11.1-27.8zm10.1-.2c0 8.6 2.7 15.8 8.2 21.6 5.5 5.8 12.3 8.7 20.4 8.7 8 0 14.7-2.9 20.1-8.7 5.4-5.8 8.1-13 8.1-21.7 0-8.8-2.7-16-8.2-21.7-5.5-5.7-12.5-8.5-20.9-8.5-7.6 0-14.1 2.9-19.5 8.7-5.5 5.9-8.2 13.1-8.2 21.6zM416.5 1100.5c3-4.3 6.8-7.6 11.3-9.8 4.5-2.2 9.5-3.4 15.1-3.4 10.1 0 17.5 3 22.1 9.1 4.6 6.1 6.9 15.8 6.9 29.3v37.6h-9.1v-39.6c0-9.8-1.6-16.9-4.9-21-3.3-4.2-8.6-6.3-15.9-6.3-4.2 0-8 .9-11.2 2.6-3.2 1.7-5.8 4.2-7.7 7.5-1.1 2-1.9 4.3-2.4 6.9-.5 2.6-.7 7.1-.7 13.6v36.2h-9v-41.7c0-8.6-1.7-14.9-5.2-19s-8.8-6.1-16-6.1c-4.3 0-8.1.9-11.4 2.6-3.3 1.7-5.9 4.2-7.8 7.5-1.2 2-2 4.3-2.5 6.9-.5 2.6-.7 7.1-.7 13.6v36.2H358v-74.5h9.4v8.5c2.8-3.3 6.2-5.8 10.1-7.5 3.9-1.7 8.2-2.5 13.1-2.5 5.6 0 10.8 1.2 15.4 3.6 4.5 2.5 8 5.7 10.5 9.7zM545.7 1100.5c3-4.3 6.8-7.6 11.3-9.8 4.5-2.2 9.5-3.4 15.1-3.4 10.1 0 17.5 3 22.1 9.1 4.6 6.1 6.9 15.8 6.9 29.3v37.6H592v-39.6c0-9.8-1.6-16.9-4.9-21-3.3-4.2-8.6-6.3-15.9-6.3-4.2 0-8 .9-11.2 2.6-3.2 1.7-5.8 4.2-7.7 7.5-1.1 2-1.9 4.3-2.4 6.9-.5 2.6-.7 7.1-.7 13.6v36.2h-9v-41.7c0-8.6-1.7-14.9-5.2-19s-8.8-6.1-16-6.1c-4.3 0-8.1.9-11.4 2.6-3.3 1.7-5.9 4.2-7.8 7.5-1.2 2-2 4.3-2.5 6.9-.5 2.6-.7 7.1-.7 13.6v36.2H487v-74.5h9.4v8.5c2.8-3.3 6.2-5.8 10.1-7.5 3.9-1.7 8.2-2.5 13.1-2.5 5.6 0 10.8 1.2 15.4 3.6 4.7 2.5 8.2 5.7 10.7 9.7zM616 1088.9h9.4v39.6c0 10.2 1.6 17.4 4.9 21.6 3.3 4.2 8.7 6.3 16.3 6.3 4.3 0 8.1-.9 11.3-2.6 3.3-1.7 5.9-4.3 7.9-7.6 1.1-1.9 1.9-4.2 2.4-6.9.5-2.6.7-7.2.7-13.8v-36.6h9.6v74.5H669v-8.1c-2.9 3.5-6.1 6.1-9.7 7.7-3.6 1.6-7.9 2.4-12.9 2.4-10.7 0-18.5-2.9-23.2-8.7-4.7-5.8-7.1-15.4-7.1-28.9v-38.9zM693.7 1088.9h9.3v8.5c2.9-3.4 6.3-5.9 10.2-7.5 3.9-1.6 8.3-2.4 13.2-2.4 5.5 0 10.3 1 14.6 3 4.3 2 7.6 4.9 10.1 8.7 1.7 2.7 2.9 5.8 3.7 9.4.7 3.6 1.1 8.9 1.1 15.9v39h-9.4v-41.7c0-8.8-1.7-15.2-5-19.2-3.4-4-8.8-6-16.2-6-4.3 0-8.1.9-11.4 2.6-3.3 1.7-5.9 4.2-7.8 7.5-1.2 2-2 4.3-2.5 6.9-.5 2.6-.7 7.1-.7 13.6v36.2h-9.3v-74.5zM780.9 1080.1h-9.6v-15.4h9.6v15.4zm-9.6 83.3v-74.5h9.6v74.5h-9.6zM802.8 1163.4v-64.9h-14.2v-9.6h14.2v-24.1h9.6v24.1h14.2v9.6h-14.2v64.9h-9.6z"/><path d="M824.3 1088.9h11l23 60.5 24.1-60.5h11.1l-40.2 98.6H843l10-24.3-28.7-74.3zM933.5 1135.2h9.3c.2 6.1 1.9 11 5.2 14.6 3.3 3.6 7.6 5.4 12.9 5.4 5.7 0 10.3-1.8 13.6-5.4 3.4-3.6 5-8.5 5-14.6 0-8.9-6.9-15.7-20.7-20.3-1.1-.4-1.9-.6-2.4-.8-7.2-2.5-12.4-5.6-15.6-9.4-3.2-3.8-4.8-8.8-4.8-14.9 0-7.9 2.4-14.3 7.3-19.3s11.2-7.5 19-7.5c7.4 0 13.3 2.3 17.6 6.8 4.3 4.6 6.8 11 7.2 19.2H978c-.5-5.4-2.1-9.5-4.8-12.4-2.7-2.9-6.3-4.4-10.9-4.4-4.9 0-8.9 1.6-12 4.8-3.1 3.2-4.6 7.2-4.6 12.2 0 2.6.5 4.8 1.4 6.7.9 1.9 2.4 3.6 4.4 5.1 2.1 1.5 6.1 3.3 11.9 5.1 3.4 1.1 6 2 7.7 2.6 6.4 2.5 11 5.7 13.9 9.5 2.8 3.9 4.2 8.9 4.2 15.2 0 9.6-2.6 17.3-7.8 23.1-5.2 5.8-12.1 8.8-20.8 8.8-8 0-14.6-2.8-19.6-8.3-4.7-5.5-7.3-12.8-7.5-21.8zM1061.4 1111.7c-2.9-5.4-6.5-9.4-10.7-12-4.2-2.6-9.2-3.9-15.1-3.9-7.7 0-14.2 2.9-19.5 8.7s-8 13-8 21.6c0 8.6 2.7 15.7 8.1 21.5 5.4 5.8 12 8.6 19.9 8.6 5.8 0 10.9-1.4 15.3-4.3 4.4-2.8 7.8-6.8 10.1-12h10.6c-2.9 8.1-7.4 14.3-13.6 18.8-6.2 4.4-13.5 6.6-21.9 6.6-10.8 0-19.9-3.8-27.3-11.5-7.4-7.7-11.1-16.9-11.1-27.7 0-11 3.8-20.4 11.3-28 7.5-7.7 16.7-11.5 27.5-11.5 8.1 0 15.2 2.2 21.4 6.5 6.2 4.4 10.8 10.5 13.9 18.4h-10.9zM1085.7 1064.7h9.4v32.9c2.8-3.4 6.1-5.9 9.9-7.7 3.9-1.7 8.2-2.6 13-2.6 10.5 0 18.1 3 22.9 9 4.8 6 7.2 15.7 7.2 29.2v37.9h-9.4v-38c0-10.8-1.6-18.3-4.9-22.5-3.3-4.2-8.7-6.3-16.3-6.3-4.3 0-8.1.9-11.4 2.6-3.3 1.7-5.9 4.2-7.8 7.5-1.2 2-2 4.3-2.5 6.9-.5 2.6-.7 7.1-.7 13.6v36.2h-9.4v-98.7zM1159.2 1126.2c0-10.9 3.7-20.3 11.2-28 7.5-7.8 16.4-11.7 26.6-11.7 10.8 0 20 3.8 27.6 11.4 7.6 7.6 11.4 16.7 11.4 27.3 0 11.1-3.7 20.6-11.2 28.5-7.5 7.9-16.5 11.8-27.1 11.8-10.8 0-19.9-3.8-27.4-11.5-7.4-7.8-11.1-17-11.1-27.8zm10-.2c0 8.6 2.7 15.8 8.2 21.6 5.5 5.8 12.3 8.7 20.4 8.7 8 0 14.7-2.9 20.1-8.7 5.4-5.8 8.1-13 8.1-21.7 0-8.8-2.7-16-8.2-21.7-5.5-5.7-12.5-8.5-20.9-8.5-7.6 0-14.1 2.9-19.5 8.7-5.5 5.9-8.2 13.1-8.2 21.6zM1243.2 1126.2c0-10.9 3.7-20.3 11.2-28 7.5-7.8 16.4-11.7 26.6-11.7 10.8 0 20 3.8 27.6 11.4 7.6 7.6 11.4 16.7 11.4 27.3 0 11.1-3.7 20.6-11.2 28.5-7.5 7.9-16.5 11.8-27.1 11.8-10.8 0-19.9-3.8-27.4-11.5-7.3-7.8-11.1-17-11.1-27.8zm10.1-.2c0 8.6 2.7 15.8 8.2 21.6 5.5 5.8 12.3 8.7 20.4 8.7 8 0 14.7-2.9 20.1-8.7 5.4-5.8 8.1-13 8.1-21.7 0-8.8-2.7-16-8.2-21.7-5.5-5.7-12.5-8.5-20.9-8.5-7.6 0-14.1 2.9-19.5 8.7-5.5 5.9-8.2 13.1-8.2 21.6zM1331.5 1163.4v-98.6h9.6v98.6h-9.6z"/></g></svg>