<svg xmlns="http://www.w3.org/2000/svg" xmlns:xlink="http://www.w3.org/1999/xlink" viewBox="206 296 200 200"><g fill="#72BEEB"><path d="M310.9 461.2c-.5-.7-1.1-1.3-1.8-1.6-.6-.3-1.4-.5-2.3-.5-1.3 0-2.5.5-3.4 1.5-.9 1-1.4 2.1-1.4 3.5s.5 2.6 1.4 3.6c.9 1 2.1 1.5 3.4 1.5.8 0 1.6-.2 2.2-.5.7-.3 1.2-.8 1.7-1.5h1.4c-.6 1-1.3 1.8-2.2 2.4-.9.6-1.9.8-3.1.8-1.8 0-3.2-.6-4.4-1.8-1.2-1.2-1.8-2.7-1.8-4.5 0-.8.2-1.6.5-2.4.3-.7.8-1.4 1.4-2 .6-.6 1.2-1 1.9-1.3.7-.3 1.5-.4 2.3-.4 1.2 0 2.2.3 3.2.9s1.7 1.4 2.2 2.5h-1.2v-.2zM313.3 465.6c0-1.3.5-2.5 1.3-3.4s2-1.4 3.2-1.4c1.3 0 2.4.5 3.3 1.4.9.9 1.4 2 1.4 3.3 0 1.3-.5 2.5-1.3 3.4-.9.9-2 1.4-3.3 1.4-1.3 0-2.4-.5-3.3-1.4-.8-.9-1.3-2-1.3-3.3zm1.3-.1c0 1 .3 1.9 1 2.6.6.7 1.5 1.1 2.5 1.1s1.8-.4 2.4-1.1c.6-.7 1-1.6 1-2.6s-.3-1.9-1-2.6c-.6-.7-1.5-1-2.5-1-.9 0-1.7.4-2.4 1.1-.7.6-1 1.5-1 2.5zM331 462.5c.4-.5.8-.9 1.3-1.2.5-.3 1.2-.4 1.8-.4 1.2 0 2.1.4 2.7 1.1.6.7.8 1.9.8 3.5v4.5h-1.1v-4.8c0-1.2-.2-2-.6-2.5-.4-.5-1-.7-1.9-.7-.5 0-1 .1-1.3.3-.4.2-.7.5-.9.9-.1.2-.2.5-.3.8 0 .3-.1.9-.1 1.6v4.4h-1.1v-5c0-1-.2-1.8-.6-2.3-.4-.5-1.1-.7-1.9-.7-.5 0-1 .1-1.4.3-.4.2-.7.5-.9.9-.1.2-.2.5-.3.8 0 .3-.1.9-.1 1.6v4.4H324v-9h1.1v1c.3-.4.7-.7 1.2-.9.5-.2 1-.3 1.6-.3.7 0 1.3.1 1.9.4.5.4.9.8 1.2 1.3zM346.6 462.5c.4-.5.8-.9 1.3-1.2.6-.3 1.2-.4 1.8-.4 1.2 0 2.1.4 2.7 1.1.6.7.8 1.9.8 3.5v4.5h-1.1v-4.8c0-1.2-.2-2-.6-2.5-.4-.5-1-.7-1.9-.7-.5 0-1 .1-1.3.3-.4.2-.7.5-.9.9-.1.2-.2.5-.3.8 0 .3-.1.9-.1 1.6v4.4h-1.1v-5c0-1-.2-1.8-.6-2.3-.4-.5-1.1-.7-1.9-.7-.5 0-1 .1-1.4.3-.4.2-.7.5-.9.9-.1.2-.2.5-.3.8 0 .3-.1.9-.1 1.6v4.4h-1.1v-9h1.1v1c.3-.4.7-.7 1.2-.9.5-.2 1-.3 1.6-.3.7 0 1.3.1 1.9.4.4.4.9.8 1.2 1.3zM355 461.1h1.1v4.8c0 1.2.2 2.1.6 2.6.4.5 1.1.8 1.9.8.5 0 1-.1 1.4-.3.4-.2.7-.5.9-.9.1-.2.2-.5.3-.8 0-.3.1-.9.1-1.7v-4.4h1.2v9h-1.2v-1c-.3.4-.7.7-1.2.9-.4.2-.9.3-1.6.3-1.3 0-2.2-.4-2.8-1.1-.6-.7-.9-1.9-.9-3.5l.2-4.7zM364.4 461.1h1.1v1c.4-.4.8-.7 1.2-.9s1-.3 1.6-.3c.6 0 1.2.1 1.8.4s.9.6 1.2 1.1c.2.3.4.7.4 1.1.1.4.1 1.1.1 1.9v4.7h-1.1v-5c0-1.1-.2-1.8-.6-2.3-.4-.5-1.1-.7-1.9-.7-.5 0-1 .1-1.4.3-.4.2-.7.5-.9.9-.1.2-.2.5-.3.8 0 .3-.1.9-.1 1.6v4.4h-1.1v-9zM374.9 460h-1.2v-1.9h1.2v1.9zm-1.2 10v-9h1.2v9h-1.2zM377.5 470v-7.8h-1.7V461h1.7v-2.9h1.2v2.9h1.7v1.2h-1.7v7.8h-1.2z"/><path d="M380.1 461.1h1.3l2.8 7.3 2.9-7.3h1.3l-4.9 11.9h-1.2l1.2-2.9-3.4-9zM286.3 481.3h5v1.2h-5v4.2h5v1.2h-6.2V476h6.2v1.2h-5v4.1zM293.3 478.8h1.1v1c.4-.4.8-.7 1.2-.9.5-.2 1-.3 1.6-.3.6 0 1.2.1 1.8.4.5.2.9.6 1.2 1.1.2.3.4.7.4 1.1.1.4.1 1.1.1 1.9v4.7h-1.1v-5c0-1.1-.2-1.8-.6-2.3-.4-.5-1.1-.7-1.9-.7-.5 0-1 .1-1.4.3s-.7.5-.9.9c-.1.2-.2.5-.3.8 0 .3-.1.9-.1 1.6v4.4h-1.1v-9zM303.4 487.8V480h-1.7v-1.2h1.7v-2.9h1.2v2.9h1.7v1.2h-1.7v7.8h-1.2zM316 483.7h-8.1c.1 1 .4 1.8 1.1 2.4.6.6 1.4.9 2.4.9.7 0 1.3-.2 1.8-.5.5-.4 1-.8 1.2-1.5h1.3c-.4 1-1 1.8-1.7 2.3s-1.6.8-2.6.8c-1.3 0-2.4-.5-3.3-1.4s-1.3-2-1.3-3.3c0-1.4.4-2.5 1.3-3.4.9-.9 2-1.3 3.4-1.3 1.3 0 2.5.5 3.3 1.4.8.8 1.2 2 1.2 3.6zm-1.3-1c-.2-1-.6-1.8-1.2-2.3-.6-.5-1.3-.7-2.3-.7-.9 0-1.6.3-2.2.8s-1 1.3-1.1 2.2h6.8zM318.4 487.8h-1.2v-9h1.1v1c.3-.4.6-.7.9-.9.3-.2.7-.3 1.2-.3v1.2c-.7.1-1.2.3-1.6.6-.3.4-.5 1-.5 1.8l.1 5.6zM321.4 478.8h1.1v1.5c.3-.5.8-.9 1.4-1.2.6-.3 1.2-.5 1.9-.5 1.3 0 2.5.5 3.4 1.3.9.9 1.3 2 1.3 3.4 0 1.3-.4 2.4-1.3 3.3-.9.9-2 1.3-3.3 1.3-.7 0-1.4-.1-2-.4-.6-.3-1.1-.7-1.5-1.2v4.3h-1.1v-11.8zm1.2 4.5c0 1 .3 1.9 1 2.6s1.5 1.1 2.4 1.1c.9 0 1.8-.3 2.4-1 .7-.7 1-1.5 1-2.5 0-1.1-.3-1.9-1-2.6-.7-.7-1.5-1.1-2.5-1.1-.9 0-1.7.4-2.3 1.1-.7.6-1 1.4-1 2.4zM333.2 487.8H332v-9h1.1v1c.3-.4.6-.7.9-.9.3-.2.7-.3 1.2-.3v1.2c-.7.1-1.2.3-1.6.6-.3.4-.5 1-.5 1.8v5.6zM337.3 477.8h-1.2v-1.9h1.2v1.9zm-1.1 10v-9h1.2v9h-1.2zM338.6 485h1.2c0 .6.2 1 .5 1.4.3.4.7.6 1.2.6s.8-.1 1.1-.4c.3-.3.5-.6.5-1.1 0-.4-.1-.8-.4-1-.2-.3-.7-.5-1.3-.7-1-.4-1.6-.7-1.9-1.1-.3-.4-.5-.9-.5-1.5 0-.7.3-1.3.8-1.8s1.1-.7 1.9-.7c.8 0 1.4.2 1.8.6.5.4.7 1 .7 1.8H343c0-.4-.2-.7-.4-1-.2-.2-.6-.4-1-.4s-.7.1-.9.4c-.2.2-.4.6-.4.9 0 .3 0 .5.1.7.1.2.3.3.5.5.2.1.5.3 1 .4.4.1.7.2.8.3.6.2 1 .6 1.2 1 .3.4.4.9.4 1.5 0 .8-.3 1.4-.8 1.9s-1.2.8-2 .8-1.5-.3-2-.8c-.6-.6-.8-1.4-.9-2.3zM354.5 483.7h-8.1c.1 1 .4 1.8 1.1 2.4.6.6 1.4.9 2.4.9.7 0 1.3-.2 1.8-.5.5-.4 1-.8 1.2-1.5h1.3c-.4 1-1 1.8-1.7 2.3s-1.6.8-2.6.8c-1.3 0-2.4-.5-3.3-1.4s-1.3-2-1.3-3.3c0-1.4.4-2.5 1.3-3.4.9-.9 2-1.3 3.4-1.3 1.3 0 2.5.5 3.3 1.4.8.8 1.2 2 1.2 3.6zm-1.3-1c-.2-1-.6-1.8-1.2-2.3s-1.3-.7-2.3-.7c-.9 0-1.6.3-2.2.8-.6.6-1 1.3-1.1 2.2h6.8zM355.2 485h1.2c0 .6.2 1 .5 1.4.3.4.7.6 1.2.6s.8-.1 1.1-.4c.3-.3.5-.6.5-1.1 0-.4-.1-.8-.4-1-.2-.3-.7-.5-1.3-.7-1-.4-1.6-.7-1.9-1.1-.3-.4-.5-.9-.5-1.5 0-.7.3-1.3.8-1.8s1.1-.7 1.9-.7c.8 0 1.4.2 1.8.6.5.4.7 1 .7 1.8h-1.2c0-.4-.2-.7-.4-1-.2-.2-.6-.4-1-.4s-.7.1-.9.4c-.2.2-.4.6-.4.9 0 .3 0 .5.1.7.1.2.3.3.5.5.2.1.5.3 1 .4.4.1.7.2.8.3.6.2 1 .6 1.2 1 .3.4.4.9.4 1.5 0 .8-.3 1.4-.8 1.9s-1.2.8-2 .8-1.5-.3-2-.8c-.6-.6-.8-1.4-.9-2.3zM372.5 487.8h-5.4v-11.9h1.2v10.7h4.2v1.2zM374.7 487.8V480H373v-1.2h1.7v-2.9h1.2v2.9h1.7v1.2h-1.7v7.8h-1.2zM386 480.3V476h1.2v11.9H386v-1.3c-.4.5-.9.9-1.5 1.2-.6.3-1.2.4-1.9.4-1.3 0-2.4-.5-3.3-1.4-.9-.9-1.3-2-1.3-3.4s.4-2.4 1.3-3.3c.9-.9 2-1.3 3.3-1.3.7 0 1.3.1 1.9.4.6.1 1.1.5 1.5 1.1zm0 3.1c0-1-.3-1.9-1-2.6-.7-.7-1.5-1.1-2.4-1.1-.9 0-1.8.3-2.4 1-.7.7-1 1.5-1 2.5 0 1.1.3 1.9 1 2.6s1.5 1.1 2.5 1.1c.9 0 1.7-.4 2.4-1.1.6-.6.9-1.4.9-2.4z"/></g><path fill="#ACC927" d="M306.4 452.5s-.3 0-.8.1H303c-.6 0-1.2 0-1.9.1h-2.3c-1.8 0-3.7-.1-5.9-.3-4.4-.4-9.7-1.2-15.5-3-5.9-1.8-12.3-4.5-18.6-8.6-3.2-2-6.3-4.4-9.4-7.1-1.5-1.3-3-2.8-4.5-4.3-1.4-1.5-2.9-3.1-4.2-4.8-2.7-3.4-5.2-7-7.5-11-1.1-2-2.1-4-3.1-6.1-.9-2.1-1.8-4.3-2.5-6.5-1.5-4.4-2.6-9.1-3.3-13.9-.3-2.4-.5-4.8-.6-7.2v-1.8V372.8c.1-1.3.2-2.5.3-3.7.1-.6.1-1.2.2-1.8.1-.6.2-1.2.2-1.8.4-2.4.8-4.9 1.4-7.3 1.2-4.8 2.9-9.5 5-13.9s4.7-8.7 7.6-12.6c2.9-3.9 6.2-7.5 9.8-10.8 3.6-3.2 7.4-6.1 11.4-8.6s8.2-4.5 12.4-6.1 8.6-2.8 12.8-3.6c2.1-.4 4.3-.7 6.4-.9 2.1-.2 4.2-.3 6.2-.3 8.2-.1 15.9 1.2 22.7 3.2 6.8 2 12.7 4.9 17.5 8 2.4 1.5 4.6 3.1 6.5 4.7 1.9 1.6 3.5 3.2 4.9 4.7 2.8 2.9 4.8 5.4 6.1 7.2.6.9 1.1 1.6 1.3 2.1l.3.6c0 .1.1.2.1.2s0-.1-.1-.2-.2-.3-.3-.5c-.3-.5-.8-1.1-1.6-1.9-1.5-1.6-3.7-3.7-6.8-6.2-1.5-1.2-3.3-2.6-5.2-3.9-2-1.3-4.1-2.7-6.6-4-2.4-1.3-5.1-2.5-7.9-3.5-2.9-1.1-5.9-1.9-9.2-2.7-6.5-1.4-13.8-2-21.3-1.4-1.9.1-3.8.4-5.7.7-1.9.3-3.8.7-5.7 1.2-3.8 1-7.6 2.3-11.3 4-3.7 1.7-7.3 3.7-10.7 6.1-3.4 2.4-6.6 5.1-9.6 8.1-5.9 6-10.7 13.2-14 21.1-1.6 3.9-2.9 8-3.7 12.1-.4 2.1-.7 4.1-1 6.2 0 .5-.1 1-.1 1.6 0 .5-.1 1-.1 1.6 0 1-.1 2.1-.1 3.1V375.9s0-.1 0 0v.8c0 .5 0 1 .1 1.5 0 .5 0 1 .1 1.5.2 2 .4 4.1.8 6.1.7 4 1.7 7.8 3.1 11.5 2.7 7.3 6.6 13.9 11.2 19.4 2.3 2.7 4.7 5.2 7.3 7.5 1.3 1.1 2.5 2.2 3.8 3.1 1.3 1 2.6 1.9 3.9 2.7 5.2 3.4 10.5 5.7 15.3 7.3 4.8 1.6 9.2 2.4 12.8 2.9 1.8.2 3.5.3 4.8.4.7 0 1.4 0 2 .1h4.7l.7 11.8z"/><path fill="#ACC927" d="M307.5 452.6s-.3 0-.8.1c-.3 0-.6 0-1 .1h-1.4c-.6 0-1.2 0-1.9.1h-4.5c-.9 0-1.9-.1-3-.2h-.8c-.3 0-.5 0-.8-.1-.5 0-1.1-.1-1.6-.2-.6-.1-1.1-.1-1.7-.2l-1.8-.3c-.6-.1-1.2-.2-1.9-.3-.6-.1-1.3-.3-1.9-.4-.6-.1-1.3-.3-2-.4-.7-.2-1.3-.4-2-.6-2.8-.7-5.6-1.7-8.6-2.9-2.9-1.3-6-2.7-9-4.5l-1.2-.6c-.4-.2-.7-.5-1.1-.7-.7-.5-1.5-1-2.3-1.5-.7-.5-1.5-1.1-2.3-1.6l-.6-.4-.6-.4c-.4-.3-.7-.6-1.1-.9-3-2.4-5.9-5-8.6-8-2.7-3-5.3-6.2-7.6-9.7-.6-.9-1.1-1.8-1.7-2.7-.1-.2-.3-.5-.4-.7l-.4-.7c-.3-.5-.5-.9-.8-1.4l-.4-.7c-.1-.2-.2-.5-.4-.7-.2-.5-.5-1-.7-1.5-.2-.5-.5-1-.7-1.5-.2-.5-.4-1-.7-1.5-1.8-4-3.2-8.2-4.3-12.6-1.1-4.4-1.7-8.9-2-13.5 0-.6-.1-1.2-.1-1.7v-1.7V375.8v-1.1l.1-1.6c0-.6 0-1 .1-1.7l.3-3.6c.6-4.6 1.6-9.1 3-13.5s3.2-8.7 5.3-12.7c2.1-4 4.7-7.9 7.5-11.4s5.9-6.8 9.2-9.7c3.3-2.9 6.8-5.5 10.4-7.7 3.6-2.2 7.4-4.1 11.2-5.6 3.8-1.5 7.6-2.6 11.4-3.5 3.8-.8 7.5-1.3 11.1-1.5 1.8 0 3.6-.2 5.3-.1h2.6c.8 0 1.6.1 2.4.1 3.4.3 6.5.8 9.4 1.4 3 .6 5.7 1.4 8.2 2.3 5 1.8 9.2 3.9 12.5 5.8.2.1.4.2.6.4.2.1.4.2.6.4.4.2.7.5 1.1.7.7.4 1.4.9 2 1.3l.9.6c.3.2.5.4.8.6.5.4 1 .7 1.3 1 .8.6 1.4 1.1 1.8 1.4.4.3.6.5.6.5l-.2.2s-.2-.1-.7-.4c-.4-.3-1.1-.7-1.9-1.2-1.7-1-4.3-2.5-7.7-4s-7.6-3.1-12.6-4.4c-2.5-.6-5.2-1.1-8-1.5-2.8-.3-5.9-.5-8.9-.5h-3.6c-.4 0-.8 0-1.2.1-1.6.1-3.2.3-4.9.5-3.3.5-6.7 1.2-10.1 2.2-3.4 1-6.8 2.3-10.1 3.9-.8.4-1.7.8-2.5 1.2-.8.5-1.6.9-2.5 1.4l-2.4 1.5c-.2.1-.4.2-.6.4l-.6.4c-.4.3-.8.5-1.2.8-3.1 2.2-6.1 4.7-8.8 7.4l-1 1c-.3.3-.7.7-1 1.1-.6.7-1.3 1.4-1.9 2.2-.6.8-1.2 1.5-1.9 2.3l-1.8 2.4c-4.5 6.5-8 13.8-10 21.5-1 3.8-1.7 7.7-2 11.7 0 .9-.1 1.9-.1 2.8v4.5l.1 1.5c0 .5 0 1 .1 1.5 0 .5.1 1 .1 1.4.4 3.9 1.1 7.6 2 11.3 1 3.7 2.3 7.1 3.9 10.5 1.5 3.3 3.4 6.4 5.3 9.4 2 2.9 4.2 5.6 6.5 8 2.3 2.5 4.7 4.6 7.2 6.6.3.2.6.5.9.7l.5.4.5.3c.6.5 1.2.9 1.9 1.3l.9.6.9.6.9.6c.3.2.6.4 1 .6.6.4 1.2.7 1.9 1.1.6.3 1.3.6 1.9 1 .3.2.6.3.9.5s.6.3.9.4c.6.3 1.2.6 1.9.8 2.5 1 4.8 1.9 7.1 2.6.6.2 1.1.3 1.7.5.6.1 1.1.3 1.7.4.5.1 1.1.3 1.6.4l1.5.3 1.5.3c.5.1 1 .1 1.4.2.5.1.9.1 1.4.2.2 0 .5.1.6.1.2 0 .4 0 .6.1.8.1 1.6.2 2.3.2H301.5h-.1H306.3l1.2 12.1z"/><path fill="#E83278" d="M306.6 443.1s-.2 0-.6.1c-.2 0-.5.1-.8.1-.1 0-.3 0-.5.1h-.7c-.5 0-1.1.1-1.7.1H298.4c-.9 0-1.8 0-2.7-.1h-1.4c-.5 0-1-.1-1.4-.1-.5 0-1-.1-1.5-.1-.5-.1-1-.1-1.6-.2-.5-.1-1.1-.2-1.6-.2-.6-.1-1.1-.2-1.7-.3-.6-.1-1.2-.2-1.8-.4-.6-.1-1.2-.3-1.8-.5-1.2-.3-2.5-.7-3.7-1.1-.3-.1-.6-.2-1-.3-.3-.1-.6-.2-1-.4-.6-.2-1.3-.5-1.9-.7-2.6-1.1-5.3-2.3-8-3.9-.3-.2-.7-.4-1-.6-.3-.2-.7-.4-1-.6-.7-.4-1.3-.8-2-1.3-.6-.5-1.3-.9-2-1.4l-.5-.4-.5-.4c-.3-.3-.6-.5-1-.8-2.6-2.1-5.2-4.4-7.5-7-2.4-2.6-4.6-5.5-6.7-8.6-2-3.1-3.8-6.5-5.3-10-1.5-3.6-2.7-7.3-3.6-11.2-.9-3.9-1.3-7.8-1.5-11.8v-1.5-4.6l.1-1.2v-1.4c.1-1.1.2-2.2.4-3.2.6-4 1.5-7.9 2.9-11.7 1.3-3.8 3-7.4 4.9-10.9 2-3.4 4.2-6.6 6.7-9.6s5.2-5.6 8.1-8c2.9-2.4 5.9-4.4 9.1-6.2 3.1-1.8 6.3-3.2 9.6-4.3 3.2-1.1 6.5-1.9 9.6-2.5 3.2-.5 6.3-.7 9.3-.8 1.5 0 3 0 4.4.1.4 0 .7 0 1.1.1h1c.6.1 1.3.1 1.9.2l2.1.3c.7.1 1.3.3 2 .4.3.1.6.1.9.2.3.1.6.1.9.2.6.2 1.2.3 1.8.5 2.4.7 4.6 1.5 6.6 2.3 1 .4 2 .8 2.9 1.3.5.2.9.5 1.3.7.4.2.8.5 1.2.7 1.6.9 3.1 1.8 4.3 2.7.6.4 1.2.9 1.8 1.2s1 .8 1.5 1.2c.2.2.5.4.6.5.2.2.4.3.6.5.4.3.7.6 1 .9l1.3 1.3.5.4s-.2-.1-.5-.4c-.3-.2-.8-.6-1.5-1.1-1.3-.9-3.3-2.2-5.9-3.5-2.6-1.4-6-2.8-9.9-4-2-.6-4.1-1.1-6.4-1.5-2.3-.4-4.7-.6-7.3-.7h-3.9c-1.3 0-2.7.1-4 .2-2.7.3-5.5.8-8.3 1.5-5.6 1.5-11.4 3.9-16.7 7.4-5.3 3.5-10.2 8-14.2 13.3-4 5.3-7.1 11.5-9 18-.9 3.2-1.6 6.6-1.9 9.9-.1.8-.1 1.7-.2 2.5V378.6l.1 1.2c.2 3.3.8 6.6 1.6 9.8.8 3.1 1.9 6.2 3.2 9.1 1.3 2.9 2.8 5.6 4.5 8.1 1.7 2.5 3.6 4.9 5.6 7 2 2.1 4.1 4 6.2 5.7.3.2.5.4.8.6l.4.3.4.3c.6.4 1.1.8 1.6 1.2.6.4 1.1.7 1.6 1.1.3.2.6.3.8.5.3.2.6.3.8.5.6.3 1.1.6 1.6.9.6.3 1.1.6 1.6.8.3.1.5.3.8.4.3.1.6.2.8.4.5.2 1.1.5 1.6.7 2.1.9 4.2 1.6 6.2 2.2 4 1.2 7.5 1.7 10.5 2 .7 0 1.4.1 2.1.2h4.8c.8 0 1.4-.1 1.8-.1h.6l1.2 11.6z"/><defs><path id="a" d="M256.8 343.4h126.6v109.5H256.8z"/></defs><clipPath id="b"><use xlink:href="#a" overflow="visible"/></clipPath><path clip-path="url(#b)" fill="#72BEEB" d="M272 359.7s31.4 54.6 28.5 93.3h11.6s-8.7-51.3-40.1-93.3"/><g><defs><path id="c" d="M256.8 343.4h126.6v109.5H256.8z"/></defs><clipPath id="d"><use xlink:href="#c" overflow="visible"/></clipPath><path clip-path="url(#d)" fill="#72BEEB" d="M263.3 344.2s-23.1 62.6 17.2 81.2c.1 0-31.2-22.2-17.2-81.2"/></g><g><defs><path id="e" d="M256.8 343.4h126.6v109.5H256.8z"/></defs><clipPath id="f"><use xlink:href="#e" overflow="visible"/></clipPath><path clip-path="url(#f)" fill="#72BEEB" d="M271.5 343.6s27.3 18.2 31.8 26.4c0 0 40.5-24.5 69.6-11.4 0 0-22.3-10.5-66.8 16.8 0 0 15.9 25.5 0 41.8 0 0 55.5-1.8 77.3-57.3 0 0-31.4-34.5-90.9-3.6-.1 0-12.8-9.1-21-12.7"/></g><g><g fill="#72BEEB"><path d="M337.9 448.1c-1.1 1.5-2.5 2.7-4.3 3.5-1.8.9-3.7 1.3-5.8 1.3-3.8 0-7-1.3-9.6-3.9-2.5-2.6-3.8-5.9-3.8-9.7 0-3.9 1.3-7.2 3.9-9.8 2.6-2.6 5.9-3.9 9.8-3.9 2 0 3.9.4 5.6 1.2s3.1 2 4.2 3.5v-4.2h3.3v26.2h-3.3v-4.2zm0-9.1c0-2.8-1-5.2-3-7.3s-4.3-3.1-6.9-3.1c-2.8 0-5.2 1-7.2 3.1s-3 4.6-3 7.7c0 2.9 1 5.4 3 7.4s4.3 3 7.1 3c2.7 0 5-1.1 7-3.2 2-2 3-4.6 3-7.6zM355.4 452.3H352v-26.2h3.2v3c.8-1.2 1.7-2 2.7-2.5 1-.5 2.1-.8 3.4-.9v3.7c-2.1.2-3.6.8-4.5 1.9-.9 1.1-1.4 2.8-1.4 5.2v15.8zM373.2 452.3h-3.4v-34.6h3.4v20.6l9.4-12.1h3.8l-9.5 12.1 11.5 14h-4.2l-11.1-13.6v13.6z"/></g></g></svg>